<?xml version="1.0" standalone="no"?>
<!DOCTYPE svg PUBLIC "-//W3C//DTD SVG 20010904//EN"
 "http://www.w3.org/TR/2001/REC-SVG-20010904/DTD/svg10.dtd">
<svg version="1.0" xmlns="http://www.w3.org/2000/svg"
 width="760.000000pt" height="760.000000pt" viewBox="0 0 760.000000 760.000000"
 preserveAspectRatio="xMidYMid meet">

<g transform="translate(0.000000,760.000000) scale(0.100000,-0.100000)"
fill="#000000" stroke="none">
<path d="M4965 7250 c-3 -5 -2 -10 4 -10 5 0 13 5 16 10 3 6 2 10 -4 10 -5 0
-13 -4 -16 -10z"/>
<path d="M4857 7181 c8 -81 2 -93 -37 -79 -52 18 -61 -5 -20 -47 32 -33 37
-61 5 -35 -8 7 -15 8 -15 2 0 -15 -32 -24 -43 -13 -7 7 -5 18 5 33 15 23 14
23 -21 22 -38 0 -72 -11 -82 -27 -3 -5 -19 -7 -35 -4 l-29 4 32 7 c17 5 34 15
37 23 5 11 2 13 -10 9 -9 -4 -23 -1 -30 5 -7 6 -18 8 -24 4 -7 -4 -26 9 -45
29 -25 28 -40 36 -67 36 -40 0 -64 -18 -101 -76 -25 -40 -27 -41 -74 -40 -38
2 -52 -2 -65 -18 -13 -15 -20 -18 -26 -9 -6 10 -24 14 -93 22 -4 1 -19 11 -34
23 -15 12 -37 23 -49 24 -11 1 -37 6 -56 11 -40 11 -40 11 -117 -66 l-55 -55
-51 11 c-78 15 -119 7 -158 -33 -36 -37 -63 -42 -94 -18 -17 12 -20 26 -19 77
1 34 0 46 -2 27 -3 -19 -7 -42 -10 -50 -5 -13 -7 -13 -17 0 -31 40 -174 44
-202 7 -6 -8 -19 -16 -30 -18 -11 -3 -22 -17 -27 -36 -10 -39 -28 -53 -28 -21
0 23 0 23 -14 -3 -7 -14 -17 -48 -21 -75 -9 -59 -40 -124 -60 -124 -8 0 -15 4
-15 8 0 13 -42 11 -93 -5 -27 -8 -57 -13 -68 -10 -30 8 -138 -46 -191 -96 -39
-36 -48 -51 -48 -78 0 -26 -3 -30 -10 -19 -8 13 -10 12 -10 -2 0 -10 -5 -18
-11 -18 -5 0 -7 -5 -4 -10 10 -16 -15 -80 -31 -80 -11 0 -13 6 -9 20 3 11 0
29 -8 40 -14 21 -14 21 -30 -3 -8 -13 -17 -34 -19 -48 -2 -16 -10 -25 -25 -27
-24 -3 -28 -17 -16 -49 6 -16 8 -15 13 5 5 23 5 23 28 -7 l23 -31 -26 -10
c-16 -6 -25 -17 -25 -31 0 -17 -3 -19 -13 -10 -14 11 -37 -3 -37 -24 0 -5 4
-3 10 5 15 24 21 6 7 -23 -6 -15 -19 -27 -27 -27 -8 0 -21 -10 -28 -21 -13
-20 -12 -21 13 -15 24 6 26 5 23 -21 -3 -32 -38 -46 -39 -16 0 15 -2 14 -9 -4
-11 -27 -30 -30 -30 -5 0 14 -2 15 -10 2 -5 -8 -10 -10 -10 -5 0 6 -7 2 -15
-9 -7 -10 -18 -15 -24 -11 -6 3 -11 2 -11 -2 0 -20 -46 -29 -93 -17 -48 12
-110 4 -122 -16 -4 -6 -13 -10 -21 -10 -14 0 -13 2 0 16 9 8 13 20 10 26 -3 5
-12 -1 -18 -14 -8 -15 -20 -22 -34 -21 -14 2 -22 -3 -22 -12 0 -8 7 -15 15
-15 8 0 15 -4 15 -10 0 -5 -6 -10 -14 -10 -8 0 -21 -3 -30 -6 -11 -4 -16 0
-17 12 0 11 -3 14 -6 7 -3 -9 -14 -11 -31 -6 -24 6 -26 5 -13 -10 12 -15 11
-17 -2 -17 -9 0 -19 5 -22 10 -9 15 -25 12 -25 -4 0 -17 -57 -39 -65 -25 -10
15 -22 10 -30 -13 l-7 -23 -6 23 c-7 22 -7 22 -21 3 -15 -20 -34 -18 -63 7
-11 9 -18 10 -18 4 0 -6 -8 -13 -18 -16 -19 -6 -102 -117 -102 -136 0 -5 -8
-10 -17 -10 -15 0 -16 2 -3 10 19 12 12 18 -24 22 -17 2 -31 -2 -33 -10 -3 -7
-1 -12 4 -11 42 7 43 -16 0 -30 -17 -6 -44 -22 -59 -36 -15 -14 -32 -25 -39
-25 -8 0 -9 -3 0 -13 6 -8 7 -17 3 -21 -4 -4 -7 -13 -7 -19 0 -7 -15 -12 -36
-12 -28 0 -35 3 -32 16 3 9 0 20 -6 23 -6 4 -11 3 -11 -3 0 -18 -31 -41 -56
-41 -24 0 -32 -14 -14 -25 16 -10 12 -25 -7 -25 -30 0 -96 -41 -131 -81 -25
-29 -29 -36 -14 -32 17 4 19 0 15 -24 -6 -31 -49 -78 -58 -63 -3 5 -22 -6 -41
-25 -19 -19 -41 -35 -50 -35 -8 0 -31 -7 -52 -16 l-37 -16 22 -15 c13 -9 23
-21 23 -28 0 -7 -31 -35 -68 -63 -80 -59 -100 -81 -85 -90 25 -17 35 -102 11
-102 -7 0 -7 -4 1 -13 6 -8 8 -17 4 -20 -11 -12 -32 27 -34 63 -1 34 -1 33
-14 -15 -8 -27 -12 -51 -10 -54 3 -2 5 1 5 7 0 7 5 12 10 12 13 0 13 -27 0
-32 -18 -6 -14 -105 4 -133 28 -42 8 -55 -79 -52 -99 3 -108 -8 -99 -113 11
-120 11 -155 -3 -153 -7 2 -13 -6 -13 -17 0 -25 16 -26 29 -2 9 16 10 16 16
-1 4 -9 1 -25 -6 -34 -9 -11 -10 -14 -2 -9 10 5 11 1 4 -16 -4 -13 -17 -28
-28 -33 -12 -6 -28 -17 -36 -24 -9 -7 -21 -10 -27 -6 -11 7 -59 -43 -60 -62 0
-6 -8 -14 -18 -17 -13 -4 -19 -16 -19 -35 0 -20 4 -28 14 -24 7 3 13 14 13 24
0 22 56 79 77 79 8 0 27 10 43 22 24 17 32 19 45 8 20 -17 19 -36 -3 -50 -16
-11 -16 -11 1 -6 43 14 35 -9 -21 -60 -40 -36 -61 -64 -66 -84 -3 -17 -10 -29
-15 -26 -15 10 11 -77 36 -117 25 -40 23 -56 -5 -58 -9 0 -12 -3 -6 -5 6 -3
23 0 38 6 l27 10 -30 44 c-22 32 -31 56 -31 86 0 72 58 155 116 166 46 8 64
32 40 50 -14 10 -16 17 -8 26 5 7 12 31 14 52 3 34 10 43 41 60 20 12 44 32
53 44 13 19 22 23 48 18 19 -4 49 0 72 9 l39 15 -42 -6 c-30 -4 -43 -2 -43 6
0 10 -4 9 -15 0 -24 -20 -29 -4 -6 19 18 18 22 18 35 6 19 -19 21 -19 45 7 18
18 24 20 46 10 15 -7 25 -8 25 -2 0 6 5 10 10 10 17 0 11 -22 -13 -44 -27 -27
-47 -61 -47 -81 0 -8 -4 -15 -10 -15 -5 0 -10 -10 -10 -23 0 -13 -6 -29 -12
-36 -11 -11 -9 -12 10 -6 25 7 29 -6 7 -25 -10 -9 -15 -9 -15 -1 0 22 -25 10
-43 -20 -20 -36 -14 -53 8 -23 12 16 14 16 15 3 0 -9 -12 -21 -26 -28 -21 -9
-24 -14 -14 -26 6 -8 9 -19 5 -25 -3 -5 -4 -10 0 -10 3 0 9 9 13 20 5 13 12
16 21 11 10 -7 11 -13 2 -30 -8 -13 -8 -21 -1 -21 5 0 9 -10 9 -22 -1 -13 2
-32 7 -43 7 -18 6 -18 -9 -6 -15 12 -17 11 -17 -2 0 -23 -28 -47 -56 -47 -15
0 -23 -4 -19 -10 4 -6 11 -7 17 -4 7 5 9 -2 4 -20 -4 -16 -2 -26 4 -26 6 0 9
4 6 8 -3 5 11 15 30 24 37 17 40 13 22 -27 -8 -18 -19 -25 -40 -25 -30 0 -35
-9 -16 -28 8 -8 8 -15 -1 -26 -7 -8 -10 -19 -8 -23 3 -5 -4 -10 -15 -10 -28
-3 -90 -53 -107 -89 -12 -25 -12 -36 1 -86 l15 -58 -51 0 c-28 0 -59 -7 -68
-14 -29 -22 -78 -131 -78 -174 0 -45 13 -59 59 -68 68 -14 106 -114 61 -162
-27 -29 -85 -30 -100 -2 -15 27 -28 25 -23 -4 4 -20 0 -24 -32 -30 -49 -9 -92
-51 -75 -71 22 -27 66 -18 97 19 24 29 35 34 71 34 52 1 85 20 103 62 9 18 19
28 27 25 8 -3 18 -5 24 -5 13 0 0 -62 -16 -75 -7 -5 -15 -16 -17 -24 -3 -8
-21 -20 -40 -27 -19 -7 -26 -13 -16 -13 21 -1 22 -24 2 -41 -21 -18 -19 -33 5
-27 10 3 19 2 18 -2 -2 -20 4 -31 18 -31 13 0 14 3 5 14 -9 11 -10 20 -2 35
17 31 79 26 92 -6 12 -32 12 -33 -6 -33 -8 0 -15 -4 -15 -10 0 -5 9 -10 20
-10 11 0 20 -4 20 -10 0 -5 11 -10 24 -10 41 0 50 -56 14 -92 l-21 -21 22 6
c25 6 71 -30 71 -56 0 -8 6 -14 13 -13 22 2 19 -19 -5 -26 -20 -5 -18 -6 10
-7 34 -1 43 -18 14 -28 -35 -13 -62 -35 -55 -46 4 -6 8 -22 9 -35 2 -14 13
-35 25 -48 18 -19 19 -24 7 -24 -9 0 -18 -10 -21 -21 -5 -18 -11 -21 -36 -16
-18 4 -33 2 -37 -5 -5 -7 -2 -9 9 -5 9 3 19 2 22 -3 4 -6 -1 -10 -9 -10 -9 0
-16 -8 -16 -17 0 -10 -3 -29 -5 -43 l-6 -25 12 23 c15 28 28 24 51 -14 28 -46
31 -53 24 -69 -8 -22 -36 -18 -64 8 l-24 22 19 -35 c10 -19 18 -35 18 -36 0
-1 12 -4 28 -8 20 -5 27 -3 27 8 0 24 29 27 42 3 6 -12 10 -24 9 -27 -2 -3
-15 -22 -31 -43 -20 -27 -26 -46 -23 -70 2 -17 -2 -43 -9 -55 -10 -20 -10 -25
5 -33 14 -8 15 -14 7 -30 -6 -11 -15 -17 -21 -14 -5 4 -9 -1 -9 -9 0 -8 -10
-22 -22 -30 -12 -9 -17 -16 -10 -16 17 0 75 30 83 43 4 5 12 6 18 3 8 -5 6
-16 -4 -37 -13 -25 -14 -30 -2 -35 11 -4 13 -21 11 -67 -4 -63 -18 -105 -41
-120 -7 -4 -13 -17 -13 -28 0 -11 -4 -17 -10 -14 -5 3 -7 0 -5 -7 3 -8 -1 -22
-9 -33 -8 -11 -10 -25 -6 -35 5 -8 13 -29 20 -46 7 -21 22 -35 47 -45 19 -7
43 -24 53 -36 17 -22 18 -22 34 -4 9 10 14 20 11 23 -3 3 1 11 10 18 10 9 15
9 15 1 0 -7 9 -9 24 -5 21 5 24 3 19 -15 -4 -16 -1 -21 13 -21 11 0 25 -9 32
-20 7 -12 8 -20 2 -20 -13 0 -13 -47 0 -55 6 -4 10 5 10 19 0 14 2 26 5 26 3
0 21 -16 39 -35 19 -19 39 -35 45 -35 17 0 13 30 -4 36 -9 4 -15 11 -14 18 3
29 -2 51 -9 39 -6 -9 -12 -8 -24 7 -14 16 -15 20 -2 31 11 9 14 8 14 -5 0 -29
16 -21 58 29 21 24 71 3 72 -30 0 -5 -12 -23 -26 -40 l-26 -30 41 -3 c30 -2
41 -8 42 -20 0 -16 1 -16 7 0 8 19 32 10 35 -13 2 -8 6 -20 11 -28 7 -11 4
-13 -16 -8 -32 8 -43 -2 -20 -19 9 -7 12 -14 6 -14 -6 0 -11 -15 -12 -33 -1
-19 -6 -45 -11 -59 -8 -22 -6 -30 17 -50 28 -24 45 -48 61 -83 13 -30 58 -50
113 -49 26 0 48 -3 48 -7 0 -15 316 -100 425 -114 28 -3 67 -14 88 -24 l39
-18 -34 -15 c-18 -8 -65 -21 -105 -27 -63 -11 -76 -17 -112 -54 -23 -22 -41
-45 -41 -49 0 -4 -10 -8 -23 -8 -13 0 -27 -4 -33 -9 -9 -9 -68 -27 -182 -55
-29 -8 -55 -16 -58 -19 -8 -8 171 -130 321 -220 458 -275 961 -444 1525 -514
220 -27 658 -24 880 5 181 25 398 66 411 79 4 4 -5 58 -21 118 -16 61 -32 139
-36 174 -4 41 -10 58 -15 50 -6 -9 -9 1 -9 29 0 23 -5 42 -11 42 -6 0 -8 9 -4
21 6 19 1 37 -36 124 -16 39 -51 201 -56 261 -8 92 4 172 25 170 9 0 21 -5 25
-11 5 -6 7 -1 5 10 -3 14 -11 19 -25 18 -23 -3 -40 26 -22 37 7 5 7 10 1 14
-15 9 -14 186 3 249 34 131 154 318 294 458 53 53 106 113 117 135 12 21 48
60 80 85 33 25 66 59 74 75 8 16 18 31 23 32 4 2 7 9 7 15 0 7 9 18 19 24 10
7 40 43 66 82 26 38 53 72 61 75 8 3 14 14 14 24 0 11 7 25 15 32 8 7 15 20
15 30 0 10 18 48 40 84 22 36 40 72 40 80 0 15 82 86 99 86 6 0 11 -7 11 -15
0 -8 5 -15 10 -15 6 0 8 -11 4 -25 -8 -33 14 -88 32 -81 11 4 14 -7 14 -47 1
-48 2 -50 15 -33 8 11 15 28 15 38 0 17 25 26 32 11 6 -15 103 -84 125 -89 13
-4 20 -10 18 -15 -3 -4 -13 -5 -21 -2 -13 5 -15 1 -10 -15 4 -11 3 -29 -3 -39
-18 -34 -51 -122 -51 -135 0 -35 -66 -165 -98 -195 -20 -18 -32 -33 -28 -33 4
0 0 -7 -8 -15 -9 -9 -20 -33 -26 -54 -5 -21 -19 -46 -30 -56 -11 -10 -20 -23
-20 -29 0 -5 -10 -21 -23 -35 -13 -15 -36 -59 -51 -98 -15 -40 -32 -75 -37
-79 -5 -3 -9 -13 -9 -23 0 -9 -9 -36 -20 -59 -11 -22 -20 -49 -20 -59 0 -10
-9 -31 -21 -48 -11 -16 -24 -40 -29 -52 -5 -13 -16 -23 -24 -23 -9 0 -12 -7
-9 -19 3 -10 -1 -30 -8 -42 -7 -13 -12 -27 -11 -31 1 -4 -5 -5 -13 -2 -12 5
-15 -3 -15 -35 0 -40 12 -54 24 -28 3 6 3 -1 0 -18 -3 -16 -12 -33 -19 -38 -8
-4 -16 -34 -20 -70 -5 -50 -3 -72 13 -112 11 -28 28 -82 37 -120 18 -76 50
-176 64 -203 15 -27 30 -81 27 -95 -1 -7 -1 -9 1 -4 7 12 23 8 23 -5 0 -7 21
-61 47 -121 57 -128 41 -126 228 -26 185 99 327 190 342 219 7 14 13 55 13 92
0 85 17 289 36 437 24 190 59 296 98 296 10 0 24 9 30 20 6 11 12 22 14 25 2
2 7 -2 12 -10 6 -9 10 -10 10 -3 0 12 71 29 103 24 10 -1 25 3 33 10 8 6 34
12 59 13 25 1 48 5 51 9 4 4 17 7 29 7 11 0 26 5 32 11 6 6 36 9 72 7 43 -2
61 1 61 9 0 9 7 10 26 3 34 -13 34 -13 34 10 0 11 5 20 10 20 6 0 10 -7 10
-15 0 -12 28 -35 43 -35 11 0 -6 39 -20 44 -8 3 -11 11 -7 17 4 8 9 7 15 -2 6
-9 9 -1 9 24 0 20 -4 37 -9 37 -5 0 -12 11 -15 25 -4 14 -13 25 -20 25 -13 0
-26 20 -26 42 0 6 7 8 15 4 10 -4 15 1 15 15 0 11 5 17 10 14 6 -3 10 -15 10
-25 0 -11 12 -26 29 -35 17 -8 47 -31 68 -50 30 -27 35 -37 25 -47 -14 -14
-16 -58 -2 -58 6 0 10 6 10 14 0 8 15 26 33 41 28 23 30 27 15 36 -10 5 -15
16 -11 25 5 12 1 15 -13 11 -20 -6 -36 3 -67 40 -27 31 -14 59 42 87 54 28 64
38 79 84 12 34 6 58 -23 98 -15 20 -14 21 8 17 28 -5 45 13 28 30 -8 8 -11 6
-11 -6 0 -25 -16 -21 -39 12 -25 35 -26 47 -6 68 9 8 13 23 10 34 -4 11 2 26
14 38 37 37 34 53 -20 96 -41 32 -47 40 -33 45 17 6 17 7 0 17 -25 14 -14 29
45 59 47 23 69 47 56 61 -3 3 -23 -8 -44 -25 -31 -24 -103 -62 -119 -62 -11 0
21 57 45 82 30 31 47 80 30 86 -6 2 -5 10 2 18 9 11 9 20 -1 38 -15 29 -4 94
13 77 6 -6 21 -11 34 -11 13 0 37 -13 54 -29 25 -25 31 -38 31 -76 1 -47 14
-43 19 5 5 58 -1 70 -50 100 -59 36 -73 72 -42 102 12 10 21 23 21 28 0 6 7
10 15 10 13 0 16 11 14 53 -1 28 -6 54 -10 57 -4 3 -18 25 -31 50 -13 25 -29
46 -36 46 -6 1 -14 2 -17 3 -2 0 13 19 34 40 32 33 39 48 43 91 6 62 -9 123
-29 116 -26 -10 -12 15 17 32 16 9 30 23 30 30 0 7 -3 11 -7 9 -5 -3 -9 5 -9
18 -1 13 -9 38 -18 56 -9 18 -14 34 -11 37 2 3 7 -3 11 -12 10 -26 24 -18 24
14 0 17 5 30 11 30 7 0 9 12 5 35 -4 19 -4 35 -1 35 14 0 65 -31 65 -40 0 -6
6 -10 13 -10 7 0 21 -10 31 -22 17 -19 17 -22 3 -33 -12 -9 -15 -24 -12 -59 5
-61 26 -106 63 -133 26 -19 32 -20 42 -8 7 8 16 12 21 9 5 -3 9 -1 9 4 0 5
-16 9 -36 8 -28 -1 -41 5 -55 24 -21 28 -24 59 -14 146 7 61 7 62 -21 80 -16
10 -33 24 -37 31 -4 7 -14 13 -22 13 -8 0 -16 4 -19 9 -8 12 36 101 50 101 6
0 19 15 27 32 18 37 12 50 -34 73 -22 12 -27 22 -28 52 0 52 17 91 42 96 l22
4 -22 8 c-25 8 -21 25 5 25 21 -1 55 -29 71 -59 19 -36 26 -16 7 23 -9 19 -31
42 -52 53 -44 23 -76 70 -55 82 10 7 11 13 1 30 -7 13 -9 38 -5 60 5 30 2 41
-14 56 -25 21 -27 35 -6 35 21 0 19 17 -5 42 -11 12 -20 27 -20 33 0 7 -8 37
-19 68 -10 32 -14 57 -10 57 5 0 9 -7 9 -15 0 -8 5 -15 11 -15 7 0 9 9 5 23
-3 12 -6 26 -6 31 0 4 -6 6 -13 3 -15 -5 -40 11 -51 33 -4 8 -13 26 -21 40
-16 27 -20 70 -7 70 4 0 7 22 7 49 0 27 -3 47 -7 45 -3 -2 -4 5 -1 16 7 26 14
25 45 -7 38 -41 42 -81 12 -120 -18 -24 -21 -33 -10 -33 8 0 19 -14 25 -31 7
-20 15 -28 23 -23 9 6 9 9 0 12 -7 2 -12 8 -12 13 0 4 7 6 15 3 13 -5 13 -3 0
22 -17 34 -19 64 -4 64 5 0 9 8 7 18 -1 9 1 22 5 29 4 6 3 14 -2 17 -6 4 -5
17 1 34 10 24 8 34 -13 62 -37 52 -62 80 -71 80 -4 0 -17 8 -27 17 -11 9 -30
18 -43 20 -12 2 -27 9 -33 15 -7 8 0 9 26 5 20 -3 41 -1 45 3 15 14 101 23
109 11 3 -6 21 -11 38 -11 l32 0 -42 25 c-24 13 -53 23 -65 23 -74 -4 -129 3
-135 17 -3 9 -2 19 2 23 4 4 10 1 12 -5 3 -7 9 -13 14 -13 6 0 5 8 -1 20 -9
16 -15 18 -30 10 -15 -8 -28 -6 -52 6 -30 15 -31 18 -13 24 18 7 19 8 3 15
-10 4 -18 13 -18 20 0 7 -10 19 -22 27 -22 15 -22 15 15 22 23 4 37 12 34 19
-2 7 -11 11 -19 9 -9 -1 -19 5 -22 14 -9 23 -3 26 30 14 l29 -10 -24 20 c-12
11 -27 17 -32 14 -18 -11 -21 27 -4 40 20 14 15 46 -7 46 -7 0 -24 21 -37 46
-19 36 -24 59 -23 108 2 82 -15 100 -98 101 -33 0 -63 5 -67 9 -4 5 -3 6 3 3
13 -8 27 20 18 34 -3 5 -13 9 -23 9 -25 0 -33 11 -20 26 13 15 -7 70 -28 79
-19 7 -16 -25 4 -47 19 -22 9 -37 -15 -21 -14 9 -16 23 -14 81 4 75 -8 111
-50 147 -28 25 -94 49 -109 40 -6 -4 -10 0 -9 11 4 31 1 37 -13 26 -7 -6 -23
-8 -36 -5 -17 4 -19 8 -9 14 7 5 23 9 35 9 12 0 25 5 29 11 4 7 0 9 -13 5 -12
-4 -27 1 -41 14 -11 11 -26 20 -33 20 -7 0 -9 9 -6 21 4 15 2 19 -9 15 -11 -4
-34 21 -39 44 -1 3 -7 18 -13 33 -7 16 -12 31 -12 34 0 3 -10 19 -22 35 l-21
30 22 -12 c21 -11 22 -10 11 9 -6 13 -21 21 -35 21 -14 0 -25 4 -25 9 0 15
-33 22 -41 9 -5 -7 -21 -14 -36 -15 -15 -1 -41 -5 -57 -9 -22 -5 -28 -4 -24 7
2 7 15 16 29 20 23 6 22 7 -9 14 -27 6 -33 12 -29 27 4 15 1 18 -13 13 -25 -8
-37 15 -17 30 24 17 21 23 -9 23 -23 0 -25 -3 -20 -29 4 -21 2 -29 -8 -29 -17
0 -14 66 4 84 18 18 73 13 91 -8 9 -11 18 -15 22 -10 8 13 -59 83 -90 95 -13
5 -21 14 -18 19 4 6 11 8 16 5 5 -4 19 -3 31 1 20 6 19 8 -12 18 -28 9 -37 9
-43 -1 -9 -15 -47 -18 -47 -3 0 6 -10 0 -22 -12 -22 -22 -23 -22 -26 -4 -5 25
-26 46 -45 46 -8 0 -20 7 -27 15 -7 8 -21 15 -31 15 -22 0 -34 16 -19 25 8 5
6 13 -4 24 -9 10 -13 21 -9 24 3 4 1 7 -5 7 -7 0 -12 -4 -12 -10 0 -5 -5 -10
-11 -10 -6 0 -17 -7 -25 -15 -20 -19 -41 -21 -25 -2 6 8 8 17 4 20 -3 4 3 7
15 7 12 0 23 8 27 20 3 11 13 20 22 20 12 0 13 3 4 13 -6 8 -7 18 -3 23 4 6
-16 -14 -45 -44 -34 -36 -58 -52 -68 -49 -8 4 -14 3 -12 -1 4 -12 -17 -10 -36
3 -25 17 -13 39 33 60 36 16 103 75 86 75 -5 0 -3 6 3 14 6 8 11 18 10 22 -14
77 79 127 131 72 l21 -23 -26 -22 c-27 -24 -65 -31 -65 -13 0 14 -13 12 -36
-5 -18 -15 -18 -15 9 -9 28 6 35 -4 16 -23 -21 -21 34 -2 67 24 17 12 36 23
42 23 16 0 15 -50 0 -51 -18 -1 53 -27 75 -28 10 -1 28 9 40 20 20 20 20 21 2
14 -53 -21 -71 -18 -85 14 -7 17 -10 37 -6 46 3 8 1 15 -5 15 -6 0 -20 11 -30
25 -27 33 -81 42 -125 22 -28 -14 -35 -24 -40 -58 -6 -37 -36 -79 -56 -79 -4
0 -8 -5 -8 -11 0 -8 5 -8 15 1 20 17 20 -4 -1 -24 -8 -9 -19 -14 -24 -11 -5 3
-11 1 -14 -4 -9 -14 -71 9 -86 32 -10 17 -10 22 4 33 16 11 15 16 -8 70 -13
33 -22 62 -20 66 8 12 66 -17 90 -45 13 -16 24 -24 24 -19 0 5 -9 19 -20 32
-12 13 -19 29 -17 34 6 16 -75 20 -84 5 -5 -9 -14 -8 -33 4 -36 24 -39 21 -11
-8 25 -24 32 -45 17 -45 -5 0 -19 11 -32 25 -22 24 -25 24 -42 8 -14 -12 -21
-14 -30 -5 -15 15 7 42 36 42 20 1 20 1 2 12 -15 8 -21 8 -24 0 -2 -7 -18 -12
-35 -11 -18 0 -26 3 -19 6 6 2 12 13 12 23 0 13 15 26 45 39 25 11 45 25 45
30 0 6 -15 2 -32 -9 -44 -27 -51 -25 -46 10 3 17 1 30 -3 30 -4 0 -9 -12 -11
-27 -3 -30 -33 -42 -66 -27 -9 4 -21 7 -27 6 -5 -1 -28 11 -50 26 -29 20 -43
40 -55 75 -22 69 -41 62 -33 -12z m-344 -73 c-2 -5 -6 -8 -9 -7 -4 0 -10 -3
-13 -8 -11 -16 -61 -44 -61 -34 0 20 46 61 65 59 11 -2 19 -6 18 -10z m450
-26 c15 -7 46 -12 67 -12 47 0 50 -11 14 -39 -35 -27 -48 -26 -62 5 -8 16 -19
24 -31 22 -24 -4 -51 19 -51 45 0 18 2 19 18 5 9 -8 30 -20 45 -26z m-453 -49
c0 -48 -11 -73 -31 -73 -11 0 -19 6 -19 13 0 8 -3 7 -10 -3 -5 -8 -12 -11 -15
-8 -14 14 8 29 32 23 16 -4 22 -2 18 5 -3 5 -13 10 -21 10 -20 0 -18 16 6 40
27 27 40 25 40 -7z m70 17 c0 -5 -4 -10 -10 -10 -5 0 -10 5 -10 10 0 6 5 10
10 10 6 0 10 -4 10 -10z m135 -10 c-4 -6 -1 -17 5 -25 7 -8 9 -15 5 -15 -9 0
-34 31 -35 43 0 4 7 7 16 7 8 0 12 -5 9 -10z m-668 -16 c4 -10 2 -19 -5 -22
-7 -2 -12 -10 -12 -18 0 -8 -9 -14 -20 -14 -11 0 -20 -4 -20 -10 0 -5 -6 -10
-14 -10 -7 0 -16 -15 -20 -32 -5 -24 -9 -29 -15 -19 -10 16 -3 42 13 54 16 10
-12 26 -35 20 -19 -5 -25 -24 -12 -37 10 -10 11 -46 1 -46 -7 0 -12 23 -9 43
2 12 -17 8 -22 -5 -2 -7 -7 -11 -10 -8 -8 7 32 90 43 90 6 0 10 6 10 13 0 8
20 13 60 15 50 3 61 0 67 -14z m898 4 c31 -14 33 -25 3 -22 -13 1 -29 3 -35 3
-15 1 -18 31 -3 31 5 0 21 -5 35 -12z m-1540 -41 c28 -6 38 -51 15 -72 -20
-18 -63 -7 -73 19 -7 17 -37 22 -37 6 0 -5 5 -10 10 -10 22 0 8 -31 -17 -42
-16 -6 -42 -18 -60 -26 -36 -18 -53 -10 -36 17 6 9 9 29 6 43 -4 22 -1 26 26
31 17 4 31 13 31 21 0 8 6 17 13 20 12 5 81 1 122 -7z m936 -10 c-7 -7 -14 -8
-21 -1 -6 6 -2 10 12 11 16 2 18 -1 9 -10z m609 -7 c0 -4 -7 -10 -15 -14 -10
-4 -15 1 -15 14 0 13 5 18 15 14 8 -4 15 -10 15 -14z m120 2 c0 -4 -11 -12
-25 -19 -22 -10 -25 -9 -25 7 0 10 8 20 18 23 19 4 32 0 32 -11z m-470 -2 c0
-5 -13 -10 -30 -10 -16 0 -30 5 -30 10 0 6 14 10 30 10 17 0 30 -4 30 -10z
m75 0 c3 -5 1 -10 -4 -10 -6 0 -11 5 -11 10 0 6 2 10 4 10 3 0 8 -4 11 -10z
m201 -10 c0 -13 -6 -20 -15 -18 -22 4 -25 26 -4 31 10 3 18 5 18 6 1 0 1 -8 1
-19z m304 -5 c10 -12 10 -15 -4 -15 -9 0 -16 7 -16 15 0 8 2 15 4 15 2 0 9 -7
16 -15z m-70 -5 c0 -5 -4 -10 -10 -10 -5 0 -10 5 -10 10 0 6 5 10 10 10 6 0
10 -4 10 -10z m-1390 -15 c0 -8 -7 -15 -15 -15 -9 0 -12 6 -9 15 4 8 10 15 15
15 5 0 9 -7 9 -15z m40 5 c12 -8 11 -10 -7 -10 -13 0 -23 5 -23 10 0 13 11 13
30 0z m-106 -15 c-10 -8 -23 -15 -28 -15 -6 0 -1 7 10 15 10 8 23 15 28 15 6
0 1 -7 -10 -15z m956 5 c0 -5 -9 -14 -20 -20 -23 -12 -26 -6 -7 15 14 17 27
19 27 5z m525 -8 c16 -11 17 -42 2 -42 -8 0 -17 11 -19 25 -5 26 -1 30 17 17z
m-1655 -13 c0 -5 4 -8 9 -5 4 3 17 -4 27 -16 l19 -21 -48 5 c-58 7 -68 15 -43
34 23 17 36 18 36 3z m1608 -48 c11 -14 10 -16 -8 -19 -24 -4 -63 25 -54 40 8
12 46 0 62 -21z m120 6 c2 -10 -3 -17 -11 -17 -16 0 -30 24 -19 34 10 10 27 1
30 -17z m72 -2 c0 -17 -27 -27 -36 -13 -4 7 -3 8 4 4 8 -5 12 1 12 14 0 12 5
18 10 15 6 -3 10 -12 10 -20z m-1884 5 c5 -5 26 -12 47 -14 53 -7 57 -12 45
-47 -9 -27 -14 -30 -39 -25 -15 3 -31 1 -34 -4 -3 -6 -1 -10 6 -10 29 0 -8
-19 -49 -26 -35 -6 -41 -4 -37 9 4 8 14 14 23 12 9 -1 12 0 5 2 -16 6 -27 57
-13 61 7 3 4 9 -7 17 -17 13 -16 14 7 24 32 13 34 13 46 1z m289 -10 c-3 -5
-10 -10 -16 -10 -5 0 -9 5 -9 10 0 6 7 10 16 10 8 0 12 -4 9 -10z m1315 -14
c0 -2 -7 -7 -16 -10 -8 -3 -12 -2 -9 4 6 10 25 14 25 6z m-1690 -70 c-24 -25
-41 -12 -33 26 6 33 35 41 46 14 5 -14 2 -26 -13 -40z m-50 25 c0 -11 -4 -22
-9 -25 -11 -7 -23 22 -15 35 9 16 24 10 24 -10z m1880 10 c0 -6 -4 -13 -10
-16 -5 -3 -10 1 -10 9 0 9 5 16 10 16 6 0 10 -4 10 -9z m50 -7 c0 -10 -40 -47
-45 -43 -9 10 20 57 32 52 7 -3 13 -7 13 -9z m-213 -7 c-3 -9 8 -18 30 -26 23
-9 32 -16 25 -23 -17 -17 -88 34 -76 54 9 14 26 9 21 -5z m109 1 c5 -8 -2 -9
-23 -5 -17 3 -35 1 -41 -5 -14 -14 -27 -4 -17 11 8 15 72 14 81 -1z m176 -8
c7 -11 18 -20 24 -20 6 0 17 -7 24 -15 10 -12 10 -15 -4 -15 -9 0 -16 5 -16
10 0 6 -5 10 -11 10 -7 0 -22 11 -35 25 -16 18 -19 25 -9 25 8 0 20 -9 27 -20z
m-187 -20 c19 -7 19 -8 2 -15 -12 -5 -24 -2 -35 9 -13 13 -14 16 -2 15 8 0 24
-4 35 -9z m139 1 c3 -5 -1 -12 -10 -15 -13 -5 -14 -9 -4 -21 18 -21 3 -19 -21
4 -20 18 -20 19 -2 30 22 13 30 13 37 2z m-101 -31 c-3 -11 -9 -20 -14 -20
-11 0 -11 3 -3 24 9 23 23 20 17 -4z m-168 0 c3 -5 2 -10 -4 -10 -5 0 -13 5
-16 10 -3 6 -2 10 4 10 5 0 13 -4 16 -10z m-1625 -8 c0 -13 -12 -22 -22 -16
-10 6 -1 24 13 24 5 0 9 -4 9 -8z m1933 -12 c4 -16 0 -20 -19 -20 -26 0 -27 1
-18 24 9 22 31 20 37 -4z m-1838 -9 c-3 -6 -16 -11 -28 -11 -21 1 -21 1 3 15
27 14 36 13 25 -4z m-503 -63 c-12 -25 -17 -29 -20 -15 -4 21 -21 22 -28 2 -5
-11 -16 -13 -45 -9 -26 4 -39 3 -39 -5 0 -6 10 -11 23 -11 18 0 23 -6 25 -30
2 -30 2 -30 -51 -30 -29 0 -58 -5 -64 -11 -8 -8 -13 -8 -17 0 -9 14 75 96 123
121 20 11 53 19 73 20 l36 0 -16 -32z m78 13 c0 -5 -7 -12 -16 -15 -22 -9 -24
-8 -24 9 0 8 9 15 20 15 11 0 20 -4 20 -9z m2410 -1 c0 -5 -2 -10 -4 -10 -3 0
-8 5 -11 10 -3 6 -1 10 4 10 6 0 11 -4 11 -10z m45 -10 c3 -5 -1 -10 -9 -10
-9 0 -16 5 -16 10 0 6 4 10 9 10 6 0 13 -4 16 -10z m90 -56 c-9 -9 -19 -13
-23 -10 -3 4 0 11 8 16 24 15 33 11 15 -6z m-2471 -18 c-3 -9 -10 -16 -15 -16
-5 0 -4 9 3 20 14 22 21 20 12 -4z m2521 -5 c3 -5 1 -12 -5 -16 -5 -3 -10 1
-10 9 0 18 6 21 15 7z m173 -46 c17 -14 35 -25 41 -25 6 0 11 -5 11 -11 0 -8
-12 -9 -37 -4 -48 9 -59 15 -42 26 10 6 4 9 -18 9 -31 0 -41 9 -26 23 13 14
42 6 71 -18z m-98 -16 c0 -6 -4 -7 -10 -4 -5 3 -10 11 -10 16 0 6 5 7 10 4 6
-3 10 -11 10 -16z m-2930 7 c0 -2 -7 -6 -15 -10 -8 -3 -15 -1 -15 4 0 6 7 10
15 10 8 0 15 -2 15 -4z m80 -27 c15 -27 6 -49 -20 -49 -15 0 -20 7 -20 26 0
16 -5 24 -12 21 -14 -4 -15 -21 -3 -49 4 -10 3 -18 -3 -18 -6 0 -15 14 -21 31
-10 29 -9 31 22 44 42 19 44 18 57 -6z m35 2 c3 -5 1 -12 -5 -16 -5 -3 -10 1
-10 9 0 18 6 21 15 7z m-285 -61 c0 -5 -4 -10 -10 -10 -5 0 -10 5 -10 10 0 6
5 10 10 10 6 0 10 -4 10 -10z m3371 -163 c4 -5 16 -3 28 5 18 11 23 11 31 -2
11 -17 13 -60 4 -60 -6 0 -54 20 -101 42 -11 6 -26 8 -31 4 -6 -3 -13 -2 -16
3 -11 17 74 24 85 8z m-4253 -349 c-3 -7 5 -20 16 -30 22 -18 12 -24 -14 -9
-10 7 -18 4 -28 -10 -13 -19 -42 -26 -42 -10 0 12 52 71 63 71 5 0 7 -6 5 -12z
m4610 -1 c6 -7 16 -25 22 -41 8 -21 7 -27 -2 -24 -7 3 -13 11 -13 19 0 8 -8
20 -17 27 -19 14 -24 32 -9 32 5 0 13 -6 19 -13z m-38 -32 c0 -8 -4 -15 -8
-15 -5 0 -9 7 -9 15 0 8 4 15 9 15 4 0 8 -7 8 -15z m-4580 -55 c0 -5 -4 -10
-10 -10 -5 0 -10 5 -10 10 0 6 5 10 10 10 6 0 10 -4 10 -10z m4650 -50 c0 -5
-4 -10 -10 -10 -5 0 -10 5 -10 10 0 6 5 10 10 10 6 0 10 -4 10 -10z m-4845
-40 c-3 -5 -11 -10 -16 -10 -6 0 -7 5 -4 10 3 6 11 10 16 10 6 0 7 -4 4 -10z
m-135 -126 c0 -8 -9 -14 -20 -14 -22 0 -26 10 -8 28 13 13 28 7 28 -14z m5157
-30 c-3 -3 -12 -4 -19 -1 -8 3 -5 6 6 6 11 1 17 -2 13 -5z m81 -6 c14 -14 16
-118 2 -118 -5 0 -10 9 -10 20 0 13 -7 20 -20 20 -11 0 -20 5 -20 11 0 5 5 7
10 4 14 -9 12 28 -2 44 -10 11 -10 13 0 7 7 -4 12 -1 12 8 0 19 11 21 28 4z
m-5358 -8 c0 -5 -4 -10 -10 -10 -5 0 -10 5 -10 10 0 6 5 10 10 10 6 0 10 -4
10 -10z m60 0 c0 -5 -5 -10 -11 -10 -5 0 -7 5 -4 10 3 6 8 10 11 10 2 0 4 -4
4 -10z m5243 -36 c-6 -17 -23 -9 -23 11 0 8 6 12 14 9 8 -3 12 -12 9 -20z
m-73 -4 c0 -5 -7 -10 -16 -10 -8 0 -12 5 -9 10 3 6 10 10 16 10 5 0 9 -4 9
-10z m-5275 -30 c3 -5 1 -10 -4 -10 -6 0 -11 5 -11 10 0 6 2 10 4 10 3 0 8 -4
11 -10z m5454 -170 c1 -13 0 -13 -9 0 -5 8 -9 24 -9 35 l0 20 9 -20 c5 -11 9
-27 9 -35z m-5594 30 c-3 -5 -11 -10 -16 -10 -6 0 -7 5 -4 10 3 6 11 10 16 10
6 0 7 -4 4 -10z m45 -10 c0 -5 -5 -10 -11 -10 -5 0 -7 5 -4 10 3 6 8 10 11 10
2 0 4 -4 4 -10z m-30 -30 c0 -5 -4 -10 -10 -10 -5 0 -10 5 -10 10 0 6 5 10 10
10 6 0 10 -4 10 -10z m-90 -17 c0 -9 -34 -32 -47 -33 -19 0 -16 21 4 35 16 12
43 10 43 -2z m164 -68 c-6 -16 -24 -21 -24 -7 0 11 11 22 21 22 5 0 6 -7 3
-15z m-245 -59 c9 -11 6 -18 -15 -35 -30 -24 -42 -26 -40 -8 0 6 -3 12 -9 12
-5 0 -9 -5 -9 -11 1 -6 -5 -11 -14 -10 -8 0 -17 -4 -19 -10 -3 -8 14 -11 49
-10 50 1 53 -1 53 -23 0 -20 -6 -24 -34 -27 -19 -2 -40 -9 -47 -15 -9 -7 -15
-5 -22 8 -26 48 -13 92 36 120 45 26 56 27 71 9z m166 -6 c-3 -5 -14 -10 -23
-9 -14 0 -13 2 3 9 27 11 27 11 20 0z m2514 -29 c11 -7 9 -11 -9 -21 -12 -6
-19 -14 -17 -17 3 -2 14 0 24 5 21 11 67 -3 58 -18 -3 -5 -1 -10 4 -10 6 0 11
4 11 8 0 5 7 9 15 9 9 0 14 -6 11 -13 -3 -7 9 -15 31 -19 22 -4 37 -13 40 -25
3 -11 16 -20 34 -22 40 -6 43 1 11 31 l-27 26 23 3 c14 2 30 -5 41 -17 10 -12
26 -21 35 -21 9 0 16 -7 16 -15 0 -8 4 -15 10 -15 5 0 7 6 4 14 -7 19 19 27
56 16 19 -6 41 -5 57 1 24 9 43 6 123 -23 26 -9 70 -64 70 -89 0 -8 12 -34 26
-58 17 -30 28 -72 35 -125 5 -45 15 -99 20 -121 33 -126 46 -149 93 -161 14
-3 37 -17 52 -30 14 -14 39 -28 55 -31 27 -5 42 -23 19 -23 -13 0 -13 -47 1
-55 5 -4 14 -18 20 -32 5 -14 14 -21 21 -17 7 4 8 3 4 -5 -4 -6 -1 -23 8 -36
9 -13 16 -31 16 -39 0 -7 7 -17 16 -20 9 -3 14 -13 11 -20 -4 -10 5 -18 25
-25 41 -14 43 -14 27 6 -13 15 -12 15 8 5 12 -7 20 -19 18 -29 -3 -19 -6 -20
-42 -8 -14 3 -23 2 -23 -4 0 -15 30 -29 51 -24 11 3 19 0 19 -7 0 -9 -12 -11
-45 -7 -24 4 -47 2 -50 -3 -3 -5 -13 -9 -23 -8 -9 0 -39 -5 -67 -12 -27 -6
-63 -13 -80 -16 -127 -20 -151 -27 -178 -54 -16 -16 -35 -26 -42 -24 -7 3 -15
-2 -19 -11 -3 -9 -10 -14 -15 -11 -4 3 -16 -3 -26 -14 -10 -11 -15 -20 -11
-20 4 0 -5 -10 -19 -22 -18 -16 -28 -36 -31 -66 -6 -48 -33 -82 -66 -82 -16 0
-19 -3 -11 -11 8 -8 8 -20 1 -41 -6 -16 -8 -32 -4 -35 7 -7 86 78 81 88 -7 11
67 84 82 81 7 -2 32 3 55 10 24 7 48 13 53 13 6 1 37 5 70 9 33 4 89 17 125
28 36 11 90 26 120 33 58 12 130 9 130 -6 0 -5 9 -9 20 -9 34 0 25 -20 -34
-67 -8 -7 -50 -16 -93 -19 -169 -13 -310 -37 -355 -60 -30 -15 -80 -65 -73
-72 2 -3 17 4 32 14 50 33 93 54 110 54 10 0 -4 -11 -32 -24 -27 -13 -62 -36
-76 -52 -14 -16 -40 -41 -59 -56 -25 -20 -31 -30 -25 -44 5 -13 9 -15 12 -6 3
6 12 12 21 12 15 0 15 -2 2 -10 -10 -7 25 -10 113 -9 70 1 130 -1 133 -3 2 -3
5 -23 6 -46 l1 -42 46 0 c52 0 93 9 87 19 -2 3 13 5 34 3 22 -2 53 3 72 12 41
20 150 25 156 8 2 -7 9 -12 17 -12 17 0 54 -149 47 -190 -1 -8 -10 -53 -18
-100 -9 -47 -17 -92 -18 -102 -1 -9 -7 -23 -14 -30 -6 -8 -14 -33 -18 -56 -3
-23 -13 -47 -20 -53 -8 -6 -14 -19 -14 -29 0 -10 -11 -25 -25 -34 -14 -9 -25
-24 -25 -33 0 -9 -15 -30 -33 -47 -19 -17 -36 -38 -40 -46 -3 -10 -8 -11 -14
-5 -4 6 -12 10 -18 10 -17 1 -65 28 -65 36 0 5 -6 6 -13 3 -7 -2 -26 6 -42 18
-56 44 -149 107 -153 103 -3 -2 25 -35 62 -72 89 -91 89 -111 4 -147 -79 -32
-87 -34 -304 -46 -119 -6 -192 -15 -217 -25 -48 -20 -81 -19 -143 4 -38 15
-97 22 -235 30 -177 11 -318 36 -343 61 -6 6 -16 10 -23 10 -11 0 -10 -6 2
-29 17 -34 134 -161 147 -161 5 0 37 -29 71 -64 57 -58 147 -116 180 -116 8 0
20 -7 27 -15 7 -8 16 -12 21 -10 15 10 296 13 310 5 8 -5 19 -4 27 2 10 9 22
8 48 -1 38 -14 98 -6 88 11 -5 7 1 9 16 5 29 -8 87 29 158 100 30 30 60 52 68
49 7 -3 15 3 18 12 8 22 77 95 144 150 l52 44 0 -43 0 -42 21 19 c12 10 26 30
31 44 l10 25 12 -34 c14 -39 44 -59 33 -22 -4 11 -10 30 -13 41 -4 12 -2 20 5
20 6 0 11 -11 11 -25 0 -14 5 -25 10 -25 6 0 10 -7 10 -15 0 -8 7 -15 15 -15
26 0 17 -45 -27 -127 -23 -43 -46 -80 -50 -81 -5 -2 -15 -19 -22 -37 -8 -18
-24 -43 -35 -54 -11 -11 -23 -32 -27 -46 -3 -14 -10 -25 -15 -25 -5 0 -9 -7
-9 -15 0 -9 -7 -18 -15 -21 -8 -3 -24 -26 -35 -50 -12 -24 -26 -44 -31 -44 -5
0 -9 -7 -9 -15 0 -15 -27 -64 -41 -75 -3 -3 -20 -35 -37 -71 -18 -37 -39 -72
-47 -79 -8 -7 -15 -18 -15 -24 0 -22 -143 -146 -169 -146 -5 0 -11 -4 -13 -10
-4 -13 -151 -50 -199 -50 -21 0 -39 5 -42 13 -3 10 -11 9 -39 0 -46 -17 -151
-16 -218 1 -64 17 -193 79 -218 104 -40 42 -82 92 -82 97 0 4 -11 21 -25 39
-14 18 -25 37 -25 42 0 5 -12 23 -27 40 -16 17 -34 42 -42 57 -8 15 -20 27
-26 27 -7 0 -19 18 -28 40 -12 30 -19 38 -32 34 -13 -5 -16 -2 -13 14 2 12 -8
30 -24 46 -16 14 -28 29 -28 33 0 4 -16 19 -35 32 -34 23 -45 41 -25 41 6 0
10 9 10 20 0 20 -74 67 -83 52 -2 -4 -2 -1 0 7 2 7 -6 29 -17 48 -11 19 -18
38 -15 43 3 5 1 10 -4 12 -5 1 -12 15 -16 29 -5 21 -2 27 20 37 14 7 32 12 40
12 7 0 17 9 20 20 8 25 -3 112 -16 124 -5 6 -9 27 -9 48 0 25 -5 41 -15 44 -8
4 -15 10 -15 15 0 6 -8 22 -17 36 -10 15 -18 31 -18 37 0 6 -4 12 -9 13 -10 2
-57 110 -60 138 -1 11 -10 45 -19 76 -13 45 -16 92 -15 235 1 99 3 171 6 161
2 -9 8 -15 13 -12 12 8 12 85 -1 85 -18 0 -10 18 10 23 11 3 20 1 20 -3 0 -10
20 -8 38 4 7 4 16 5 19 2 4 -3 0 -6 -7 -6 -7 0 -1 -9 13 -20 14 -11 30 -20 37
-20 6 0 18 -7 26 -15 8 -8 31 -17 52 -20 20 -3 54 -12 74 -20 20 -7 55 -12 77
-11 28 1 41 -3 41 -12 0 -8 6 -11 13 -8 6 3 20 9 30 12 9 4 17 12 17 20 0 29
64 45 74 19 3 -9 1 -15 -7 -14 -6 1 -22 -2 -34 -6 -18 -6 -20 -10 -10 -26 8
-12 15 -15 23 -8 7 5 18 8 25 7 9 -2 15 8 17 23 3 26 39 48 52 31 3 -4 46 -8
95 -8 50 -1 78 0 63 3 -16 2 -28 8 -28 13 0 11 41 9 58 -3 21 -16 13 4 -14 36
-15 18 -22 33 -15 35 13 4 -14 62 -29 62 -6 0 -18 8 -28 18 -25 25 -96 52
-137 52 -18 0 -46 5 -62 12 -15 6 -34 10 -41 9 -7 -1 -26 8 -42 19 -21 15 -30
17 -31 8 0 -7 -4 -4 -9 8 -8 20 -15 21 -123 20 -98 -1 -117 1 -126 16 -8 14
-4 24 22 51 28 30 40 35 98 41 64 7 128 -7 166 -37 16 -12 143 -47 203 -56 25
-4 54 -12 65 -18 11 -6 31 -11 45 -11 34 0 111 -20 127 -34 22 -18 15 23 -12
75 -14 26 -23 47 -19 47 4 0 -5 9 -19 20 -14 11 -30 20 -36 20 -5 0 -18 9 -28
19 -27 29 -172 78 -253 86 -19 2 -54 10 -77 18 -67 25 -170 24 -222 -2 -55
-26 -55 -26 -48 1 3 12 2 29 -3 38 -15 28 -22 200 -9 216 9 11 8 14 -7 15 -17
0 -16 2 3 11 20 10 21 16 16 77 -5 55 -3 70 12 84 11 11 14 24 9 35 -7 16 -7
16 -11 -1 -3 -9 -9 -15 -14 -12 -17 11 -9 39 21 79 36 47 32 58 -6 22 -16 -14
-30 -23 -32 -21 -10 10 33 92 45 88 8 -3 18 7 24 26 6 17 14 31 18 31 4 0 13
11 19 25 14 30 18 35 73 98 37 41 39 47 20 47 -25 0 -28 15 -5 24 8 3 13 10
10 15 -9 13 46 30 80 24 27 -4 28 -3 11 10 -16 14 -14 16 33 27 28 7 62 9 75
6 14 -4 25 -2 25 4 0 5 22 10 49 10 62 0 89 24 39 36 -32 7 -32 8 -8 15 41 12
60 10 60 -6 0 -17 16 -20 25 -5 4 6 15 8 26 5 12 -4 19 -2 19 6 0 10 3 10 12
1 18 -18 28 -15 28 8 0 21 33 28 59 11z m-2633 -28 c-2 -16 -4 -34 -5 -41 -2
-22 -21 -2 -21 22 0 18 16 46 26 46 2 0 1 -12 0 -27z m94 -13 c0 -11 -4 -22
-10 -25 -5 -3 -10 -2 -10 2 0 5 -7 18 -15 29 -14 18 -14 17 -9 -11 4 -23 1
-33 -14 -42 -17 -10 -21 -9 -26 4 -8 19 2 53 15 53 5 0 9 7 9 14 0 12 6 13 30
5 19 -7 30 -18 30 -29z m5700 -50 c0 -5 -4 -10 -10 -10 -5 0 -10 5 -10 10 0 6
5 10 10 10 6 0 10 -4 10 -10z m-5918 -92 c-7 -7 -12 -8 -12 -2 0 14 12 26 19
19 2 -3 -1 -11 -7 -17z m74 1 c-32 -25 -32 -32 -1 -63 27 -27 25 -51 -6 -59
-10 -3 -19 -10 -19 -17 0 -7 8 -9 20 -5 11 4 20 2 20 -4 0 -16 -36 -13 -50 4
-7 9 -19 14 -26 11 -27 -10 -34 77 -7 106 9 10 22 18 28 18 7 0 18 7 25 15 7
8 19 15 28 15 9 0 6 -7 -12 -21z m72 -45 c-4 -23 -18 -24 -32 -1 -8 14 -8 20
4 27 18 11 33 -2 28 -26z m5855 1 c23 -32 15 -32 -19 0 -16 15 -21 25 -13 25
8 0 22 -12 32 -25z m114 -75 c24 -27 30 -65 12 -76 -7 -4 -16 2 -22 12 -11 18
-12 23 -15 53 -2 11 -5 11 -19 0 -11 -10 -14 -10 -9 -1 4 6 2 12 -3 12 -6 0
-11 14 -11 32 l0 31 23 -19 c12 -10 32 -30 44 -44z m-116 18 c11 -21 11 -22
-4 -9 -10 7 -17 17 -17 22 0 15 9 10 21 -13z m-6081 -19 c0 -6 -4 -7 -10 -4
-5 3 -10 11 -10 16 0 6 5 7 10 4 6 -3 10 -11 10 -16z m50 -59 c0 -5 -4 -10
-10 -10 -5 0 -10 5 -10 10 0 6 5 10 10 10 6 0 10 -4 10 -10z m190 -19 c0 -6
-4 -13 -10 -16 -5 -3 -10 1 -10 9 0 9 5 16 10 16 6 0 10 -4 10 -9z m3460 -1
c0 -5 -4 -10 -10 -10 -5 0 -10 5 -10 10 0 6 5 10 10 10 6 0 10 -4 10 -10z
m-3756 -20 c7 -7 4 -10 -7 -10 -38 0 -97 -47 -97 -77 0 -12 -4 -25 -10 -28
-16 -10 -12 101 4 118 17 16 93 14 110 -3z m56 10 c0 -5 -4 -10 -10 -10 -5 0
-10 5 -10 10 0 6 5 10 10 10 6 0 10 -4 10 -10z m210 -29 c0 -10 -8 -29 -19
-42 -10 -13 -28 -43 -40 -66 -12 -24 -25 -43 -29 -43 -4 0 -13 28 -19 62 -14
73 -7 88 43 88 18 0 36 5 39 10 10 16 25 11 25 -9z m5891 -28 c-9 -17 -10 -17
-16 0 -4 9 -1 25 6 34 13 15 14 15 17 0 2 -9 -1 -24 -7 -34z m-2442 -8 c7 -19
17 -35 22 -35 5 0 9 -7 9 -15 0 -8 9 -20 20 -27 13 -9 22 -28 26 -60 4 -27 10
-48 15 -48 5 0 9 -8 9 -17 -1 -16 -2 -16 -11 1 -9 14 -13 15 -19 5 -7 -10 -20
-6 -60 19 -28 18 -56 32 -61 32 -19 0 -14 126 6 157 21 31 29 29 44 -12z m51
-1 c0 -13 -4 -24 -9 -24 -10 0 -21 47 -13 54 10 11 22 -6 22 -30z m-3764 17
c-7 -11 -46 -21 -46 -12 0 13 13 21 32 21 11 0 17 -4 14 -9z m94 -37 c0 -31
-3 -35 -22 -32 -15 2 -24 11 -26 27 -3 18 0 22 11 18 9 -3 18 1 21 9 9 24 16
15 16 -22z m-87 -14 c3 -11 6 -24 7 -28 1 -4 11 -20 23 -36 16 -23 17 -30 6
-37 -14 -9 -26 -11 -32 -6 -2 1 -11 -4 -19 -10 -18 -15 -28 -7 -28 22 0 12 -7
37 -16 55 -16 31 -16 34 1 47 27 19 52 16 58 -7z m112 10 c3 -5 1 -10 -4 -10
-6 0 -11 5 -11 10 0 6 2 10 4 10 3 0 8 -4 11 -10z m3512 -32 c-3 -7 -5 -2 -5
12 0 14 2 19 5 13 2 -7 2 -19 0 -25z m-3367 14 c0 -5 -9 -17 -20 -27 -22 -20
-26 -14 -10 16 11 19 30 26 30 11z m-143 -27 c-10 -7 -17 -20 -17 -29 0 -9 -4
-16 -10 -16 -5 0 -10 2 -10 4 0 2 -3 11 -6 20 -4 10 -1 16 9 16 8 0 18 7 21
16 3 8 11 12 17 8 9 -5 7 -11 -4 -19z m-178 -74 c-1 -13 -2 -12 -6 2 -2 9 -9
17 -14 17 -5 0 -9 8 -9 18 1 15 2 15 15 -2 8 -11 14 -27 14 -35z m-39 -27 c0
-8 -4 -12 -10 -9 -5 3 -10 10 -10 16 0 5 5 9 10 9 6 0 10 -7 10 -16z m150 -5
c0 -3 -9 -14 -20 -24 -20 -18 -20 -18 -18 6 1 16 8 25 20 25 10 0 18 -3 18 -7z
m-74 -36 c-10 -10 -19 5 -10 18 6 11 8 11 12 0 2 -7 1 -15 -2 -18z m-86 -93
c0 -5 -5 -10 -11 -10 -5 0 -7 5 -4 10 3 6 8 10 11 10 2 0 4 -4 4 -10z m50 0
c0 -5 -2 -10 -4 -10 -3 0 -8 5 -11 10 -3 6 -1 10 4 10 6 0 11 -4 11 -10z
m6369 -147 c0 -5 -4 -17 -9 -28 -8 -18 -9 -17 -9 8 -1 15 4 27 9 27 6 0 10 -3
9 -7z m-2282 -142 c-3 -14 1 -21 14 -23 12 -2 16 -7 10 -16 -12 -19 -41 -3
-41 22 0 21 7 36 18 36 2 0 2 -9 -1 -19z m2153 -161 c0 -11 -4 -20 -10 -20 -5
0 -10 9 -10 20 0 11 5 20 10 20 6 0 10 -9 10 -20z m-3340 -11 c0 -5 -7 -9 -15
-9 -8 0 -15 7 -15 15 0 9 6 12 15 9 8 -4 15 -10 15 -15z m3429 -34 c-1 -17 -2
-17 -6 -2 -2 9 -9 15 -14 12 -11 -7 -11 -3 -3 20 5 13 8 14 15 3 5 -7 8 -22 8
-33z m-6173 -42 c1 -10 4 -26 9 -35 4 -11 3 -18 -5 -18 -6 0 -8 5 -5 10 3 6
-3 10 -14 10 -12 0 -21 -4 -21 -10 0 -5 5 -10 10 -10 6 0 10 -13 10 -30 0 -20
-5 -30 -15 -30 -8 0 -15 -4 -15 -10 0 -5 -7 -10 -16 -10 -8 0 -13 4 -10 9 3 5
-1 14 -9 21 -32 27 -16 86 29 106 42 18 52 17 52 -3z m6084 7 c0 -5 -5 -10
-11 -10 -5 0 -7 5 -4 10 3 6 8 10 11 10 2 0 4 -4 4 -10z m70 -67 c0 -7 11 -20
25 -29 20 -13 23 -19 14 -30 -16 -19 -30 -17 -22 3 4 11 3 14 -5 9 -7 -4 -12
-13 -12 -19 0 -7 -9 -23 -19 -36 l-18 -24 -7 39 c-13 71 -17 116 -11 132 5 12
10 11 30 -8 14 -13 25 -29 25 -37z m40 37 c0 -5 -7 -10 -15 -10 -8 0 -15 5
-15 10 0 6 7 10 15 10 8 0 15 -4 15 -10z m76 -22 c5 -8 2 -9 -10 -5 -13 5 -19
1 -23 -13 -7 -25 -19 -26 -33 -1 -7 14 -6 21 3 24 23 10 56 7 63 -5z m-2651
-58 c-28 -12 -45 -12 -45 0 0 6 15 10 33 9 27 0 29 -2 12 -9z m-1160 -50 c3
-5 -1 -10 -10 -10 -9 0 -13 5 -10 10 3 6 8 10 10 10 2 0 7 -4 10 -10z m1160
-30 c3 -5 1 -10 -4 -10 -6 0 -11 5 -11 10 0 6 2 10 4 10 3 0 8 -4 11 -10z
m2459 -15 c14 -21 14 -24 1 -19 -10 4 -15 0 -15 -10 0 -9 -4 -16 -9 -16 -15 0
-26 23 -14 27 6 2 9 13 6 23 -7 28 12 25 31 -5z m-669 -15 c10 -11 15 -20 11
-20 -4 0 -16 9 -28 20 -12 11 -17 20 -11 20 5 0 18 -9 28 -20z m-5482 -9 c9
-9 5 -17 -21 -37 -18 -14 -32 -35 -32 -46 0 -12 -3 -19 -6 -15 -15 15 -36 -25
-31 -58 l6 -35 -37 19 c-20 10 -41 18 -46 17 -22 -3 -29 32 -13 67 9 19 17 41
17 48 0 7 10 24 23 37 19 21 29 23 75 20 29 -3 58 -10 65 -17z m2537 9 c0 -5
-4 -10 -10 -10 -5 0 -10 5 -10 10 0 6 5 10 10 10 6 0 10 -4 10 -10z m168 -18
c12 -15 8 -18 -35 -23 -26 -3 -50 -4 -52 -3 -2 2 2 16 9 30 11 20 19 24 40 19
14 -3 31 -14 38 -23z m872 -4 c37 -40 27 -53 -45 -55 -66 -1 -77 6 -50 33 12
12 64 44 72 44 1 0 11 -10 23 -22z m125 -8 c-3 -5 -10 -10 -16 -10 -5 0 -9 5
-9 10 0 6 7 10 16 10 8 0 12 -4 9 -10z m145 -8 c0 -10 -41 -35 -47 -28 -9 8
17 36 33 36 8 0 14 -3 14 -8z m-3820 -53 c0 -11 -4 -17 -10 -14 -5 3 -10 13
-10 21 0 8 5 14 10 14 6 0 10 -9 10 -21z m6190 -9 c0 -5 -4 -10 -10 -10 -5 0
-10 5 -10 10 0 6 5 10 10 10 6 0 10 -4 10 -10z m-2465 -58 c-8 -8 -25 17 -25
38 0 9 6 6 16 -8 9 -13 13 -26 9 -30z m-3615 19 c0 -12 -20 -25 -27 -18 -7 7
6 27 18 27 5 0 9 -4 9 -9z m-185 -41 c-6 -10 6 -14 35 -11 8 1 4 -5 -10 -13
-14 -9 -31 -15 -37 -16 -14 0 -18 32 -6 43 10 11 25 8 18 -3z m89 -79 c8 -12
-21 -34 -34 -26 -17 11 -11 35 9 35 11 0 22 -4 25 -9z m1756 -72 c0 -11 3 -19
8 -19 9 0 32 -72 32 -100 0 -39 -17 -19 -40 48 -13 37 -27 72 -32 79 -6 7 -7
17 -3 23 10 16 35 -7 35 -31z m-1700 12 c0 -6 -4 -13 -10 -16 -5 -3 -10 1 -10
9 0 9 5 16 10 16 6 0 10 -4 10 -9z m1650 -86 c0 -8 -2 -15 -4 -15 -2 0 -6 7
-10 15 -3 8 -1 15 4 15 6 0 10 -7 10 -15z m-1986 -30 c-7 -16 -35 -35 -53 -35
-25 0 -8 30 22 39 17 5 33 10 34 10 1 1 0 -6 -3 -14z m6446 -9 c0 -16 -11 -32
-29 -45 -35 -25 -42 -26 -35 -6 4 9 0 15 -10 15 -10 0 -13 6 -10 15 4 8 12 15
19 15 7 0 15 7 19 15 3 8 15 15 26 15 15 0 20 -7 20 -24z m-4440 -14 c0 -21
34 -52 56 -52 20 0 62 -43 75 -77 16 -43 11 -107 -10 -125 -17 -15 -43 -22
-63 -19 -4 0 -3 13 2 27 8 20 7 29 -4 38 -17 13 -24 55 -13 73 4 7 -2 18 -15
27 -12 9 -17 16 -10 16 18 0 15 14 -10 41 -22 24 -36 85 -17 73 5 -3 9 -13 9
-22z m-1646 -1 c3 -5 16 -7 29 -4 12 4 18 2 14 -3 -10 -11 -117 -15 -117 -4 0
18 64 27 74 11z m-114 -21 c0 -5 -4 -10 -10 -10 -5 0 -10 5 -10 10 0 6 5 10
10 10 6 0 10 -4 10 -10z m92 -77 c7 -8 3 -10 -12 -6 -27 7 -36 23 -19 34 9 5
15 4 18 -4 2 -7 8 -17 13 -24z m76 4 c17 -46 16 -48 -15 -41 -22 6 -25 4 -20
-10 4 -10 7 -20 7 -22 0 -2 9 -4 20 -4 11 0 20 -4 20 -9 0 -5 -9 -11 -20 -14
-11 -3 -20 -1 -20 5 0 5 -7 16 -15 24 -12 12 -12 19 -2 36 10 17 9 22 -5 31
-15 10 -15 12 0 24 27 20 37 15 50 -20z m1598 -67 c17 -71 17 -70 -2 -70 -9 0
-14 6 -11 13 3 8 -8 25 -24 38 -32 27 -37 39 -13 39 11 0 14 6 9 21 -6 16 -3
20 11 17 12 -2 21 -20 30 -58z m4294 35 c0 -7 6 -18 14 -22 7 -4 19 -19 25
-32 10 -18 15 -20 24 -11 9 10 9 14 -1 17 -6 3 -10 8 -7 13 8 13 55 -13 55
-30 0 -12 -2 -12 -9 -1 -5 8 -11 9 -15 3 -3 -5 5 -20 18 -33 23 -22 23 -25 10
-51 -8 -15 -21 -28 -29 -28 -8 0 -15 -6 -15 -13 0 -7 -13 -27 -29 -44 -23 -26
-26 -34 -16 -43 13 -11 9 -46 -6 -56 -5 -3 -14 6 -21 20 -6 15 -26 31 -45 38
-36 13 -43 32 -16 42 14 6 14 8 -5 22 -21 15 -33 72 -12 59 6 -3 10 -1 10 4 0
6 5 11 11 11 7 0 10 -14 7 -35 -2 -19 0 -35 4 -35 4 0 8 4 8 10 0 5 13 7 30 3
26 -5 29 -3 24 12 -6 15 -4 16 15 5 13 -6 25 -9 28 -6 9 8 -28 47 -38 40 -5
-3 -9 0 -9 7 0 7 -3 10 -6 6 -9 -8 -30 14 -38 41 -9 27 4 28 32 2 25 -24 32
-25 32 -6 0 8 -7 16 -15 20 -8 3 -15 12 -15 20 0 8 -7 19 -15 24 -10 5 -13 15
-9 25 8 21 24 22 24 2z m-4334 -72 c22 -29 18 -49 -6 -28 -19 17 -27 45 -14
45 4 0 13 -8 20 -17z m-1579 -65 c-3 -8 -6 -5 -6 6 -1 11 2 17 5 13 3 -3 4
-12 1 -19z m4876 -92 c-1 -14 2 -24 8 -21 5 4 12 -2 15 -12 3 -10 10 -26 15
-36 5 -10 7 -22 4 -27 -4 -6 -3 -16 2 -22 4 -7 9 -24 11 -37 2 -18 -1 -22 -12
-18 -20 8 -20 2 0 -28 11 -16 12 -25 5 -25 -6 0 -14 7 -18 16 -3 9 -17 28 -31
43 -31 33 -62 94 -62 121 0 25 40 82 55 77 5 -2 9 -16 8 -31z m-103 -90 c0 -7
14 -25 31 -40 17 -15 44 -57 60 -93 28 -63 39 -104 19 -73 -5 8 -10 11 -10 5
0 -5 -5 -4 -12 3 -7 7 -21 12 -32 12 -27 1 -69 37 -84 72 -8 20 -8 40 0 82 7
30 16 53 20 50 4 -3 8 -11 8 -18z m238 -8 c23 -29 6 -150 -37 -273 -24 -66
-47 -146 -52 -178 -5 -32 -13 -67 -19 -77 -5 -10 -10 -30 -10 -44 0 -13 -10
-37 -23 -53 -13 -15 -33 -44 -45 -65 -12 -20 -29 -39 -38 -42 -8 -3 -14 -11
-12 -18 3 -15 -23 -58 -34 -58 -5 0 -8 7 -8 16 0 13 -3 14 -14 5 -11 -10 -17
-7 -29 10 -15 20 -14 23 14 46 37 32 74 95 89 153 13 53 40 120 49 120 4 0 13
20 20 45 7 25 16 45 20 45 4 0 13 27 19 60 12 57 25 74 35 48 7 -18 9 62 4
122 -1 14 3 34 10 45 7 11 13 29 13 41 0 12 7 27 15 34 8 7 12 16 9 21 -8 14
12 11 24 -3z m-2400 -120 c8 -8 72 -18 155 -26 167 -15 176 -15 329 -8 71 3
120 1 123 -5 4 -5 15 -3 28 6 31 21 57 19 57 -5 0 -25 9 -25 26 -3 17 24 25
13 18 -25 -4 -17 -14 -32 -24 -35 -10 -3 -21 -18 -25 -35 -6 -29 -8 -30 -33
-21 -21 8 -29 7 -39 -7 -8 -11 -29 -18 -64 -19 -28 -2 -55 -8 -58 -14 -10 -16
-97 -30 -136 -21 -19 4 -64 5 -99 3 -53 -5 -71 -2 -93 13 -15 10 -37 18 -48
19 -11 1 -35 2 -52 3 -26 2 -34 7 -39 27 -7 29 -7 29 -45 10 -27 -15 -30 -14
-36 2 -4 10 -17 33 -29 51 -23 34 -22 77 2 68 8 -3 18 4 24 14 12 23 40 26 58
8z m-2578 -48 c5 0 14 -9 20 -20 9 -18 8 -20 -15 -20 -15 0 -24 4 -21 9 3 5
-1 14 -9 21 -8 7 -15 19 -15 27 0 12 3 12 16 -1 8 -9 19 -16 24 -16z m-31 -25
c3 -17 2 -17 -13 -3 -19 20 -21 31 -3 26 6 -3 14 -13 16 -23z m5761 -15 c0 -5
-4 -10 -10 -10 -5 0 -10 5 -10 10 0 6 5 10 10 10 6 0 10 -4 10 -10z m-5684
-55 c-20 -36 -36 -46 -36 -21 0 7 -10 26 -22 41 l-21 27 30 -6 c20 -5 34 -3
38 4 5 9 10 9 18 1 8 -8 6 -21 -7 -46z m5706 3 c-7 -7 -12 -8 -12 -2 0 14 12
26 19 19 2 -3 -1 -11 -7 -17z m-5614 -47 c3 -8 -1 -12 -9 -9 -7 2 -15 10 -17
17 -3 8 1 12 9 9 7 -2 15 -10 17 -17z m5648 -85 c-3 -13 1 -37 9 -52 20 -39
19 -53 -5 -47 -15 4 -18 11 -14 33 4 15 1 31 -5 34 -7 5 -7 14 1 31 14 32 22
32 14 1z m34 -27 c0 -6 -4 -7 -10 -4 -5 3 -10 11 -10 16 0 6 5 7 10 4 6 -3 10
-11 10 -16z m-5765 -29 c4 -6 12 -9 18 -8 7 1 22 -4 34 -12 17 -11 19 -18 12
-37 -7 -20 -5 -23 14 -24 l22 0 -22 -16 c-13 -8 -23 -23 -23 -33 0 -23 -58
-22 -82 2 -16 16 -15 18 3 39 16 18 23 20 42 12 20 -9 23 -8 25 12 1 18 -4 24
-28 27 -20 3 -30 0 -30 -9 0 -7 -4 -13 -9 -13 -15 0 -23 18 -11 25 5 3 10 15
10 26 0 20 15 26 25 9z m105 -51 c0 -5 -7 -9 -15 -9 -15 0 -20 12 -9 23 8 8
24 -1 24 -14z m5780 6 c-7 -9 -15 -13 -17 -11 -7 7 7 26 19 26 6 0 6 -6 -2
-15z m-16 -100 c6 -18 5 -18 -8 -5 -8 8 -18 29 -21 45 l-7 30 14 -25 c8 -14
17 -34 22 -45z m-5694 31 c0 -3 -4 -8 -10 -11 -5 -3 -10 -1 -10 4 0 6 5 11 10
11 6 0 10 -2 10 -4z m5570 -27 c0 -6 6 -9 14 -6 9 4 16 -3 21 -20 3 -14 28
-47 55 -73 70 -68 67 -101 -11 -121 -27 -7 -49 -16 -49 -20 0 -4 -7 -9 -15
-13 -10 -4 -18 7 -27 37 -15 55 -16 59 -6 80 7 13 4 17 -10 17 -21 0 -35 32
-25 57 5 12 7 12 14 2 5 -9 10 1 15 29 4 23 10 42 15 42 5 0 9 -5 9 -11z
m-5655 -79 c3 -5 1 -10 -4 -10 -6 0 -11 5 -11 10 0 6 2 10 4 10 3 0 8 -4 11
-10z m-12 -51 c-17 -17 -37 -1 -22 17 8 10 15 12 23 4 7 -7 7 -13 -1 -21z
m5857 -9 c0 -5 -4 -10 -10 -10 -5 0 -10 5 -10 10 0 6 5 10 10 10 6 0 10 -4 10
-10z m-5926 -112 c-3 -5 2 -8 12 -6 11 2 19 -3 19 -9 0 -7 -3 -13 -7 -13 -73
0 -74 0 -55 14 11 9 15 20 10 32 -6 17 -5 17 10 5 9 -7 14 -18 11 -23z m36 22
c0 -5 -2 -10 -4 -10 -3 0 -8 5 -11 10 -3 6 -1 10 4 10 6 0 11 -4 11 -10z m112
-36 c-8 -14 -9 -13 -9 10 0 18 3 24 9 18 7 -7 7 -16 0 -28z m-42 -29 c-7 -8
-17 -15 -22 -15 -6 0 -5 7 2 15 7 8 17 15 22 15 6 0 5 -7 -2 -15z m-90 -34 c3
-4 17 -12 33 -18 18 -9 27 -20 27 -35 0 -35 -16 -54 -32 -41 -19 16 -119 22
-107 7 5 -7 17 -10 27 -7 9 2 26 -3 37 -10 16 -13 17 -17 6 -31 -20 -24 -34
-20 -69 20 -34 38 -39 59 -21 84 8 11 12 12 16 2 7 -17 23 -5 16 13 -3 9 1 15
11 15 9 0 16 4 16 10 0 9 30 2 40 -9z m96 -68 c-12 -12 -29 15 -21 34 7 17 8
16 18 -5 5 -12 7 -25 3 -29z m268 6 c-8 -14 -24 -10 -24 6 0 9 6 12 15 9 8 -4
12 -10 9 -15z m-14 -189 c0 -5 -2 -10 -4 -10 -3 0 -8 5 -11 10 -3 6 -1 10 4
10 6 0 11 -4 11 -10z m3073 -103 c-7 -11 -23 12 -23 33 1 12 4 11 15 -4 8 -10
12 -23 8 -29z m-1488 -257 c12 -18 29 -30 42 -30 12 0 24 -8 26 -17 3 -10 5
-1 6 20 0 20 5 37 10 37 12 0 22 -30 14 -42 -3 -7 -1 -8 5 -4 7 4 12 1 12 -8
0 -8 9 -20 19 -26 16 -8 23 -5 40 16 12 15 21 31 21 37 0 6 10 2 23 -9 46 -40
65 -46 103 -32 37 13 43 24 17 31 -16 4 -16 5 1 12 13 6 21 4 24 -3 7 -22 49
-14 56 11 7 21 7 21 15 2 5 -11 6 -25 4 -32 -4 -9 1 -9 21 0 14 7 27 20 30 29
6 25 26 23 26 -2 0 -17 7 -20 40 -20 22 0 40 5 40 11 0 6 6 9 13 7 6 -3 12
-11 12 -18 0 -17 21 -24 30 -11 9 16 25 13 25 -3 0 -18 50 -30 113 -27 42 2
47 0 47 -19 0 -12 3 -20 8 -18 4 2 18 9 32 16 21 11 31 11 55 0 30 -13 30 -13
-23 -16 -36 -2 -52 -7 -49 -15 5 -16 67 -16 92 0 26 17 45 17 45 -2 0 -8 5
-15 10 -15 6 0 10 7 10 15 0 19 16 20 23 1 3 -7 20 -16 39 -19 72 -12 121 -25
127 -35 3 -5 17 -13 31 -17 14 -4 47 -16 73 -28 37 -16 47 -25 44 -39 -3 -11
0 -18 9 -18 8 0 14 -4 14 -10 0 -5 -5 -10 -11 -10 -5 0 -7 -4 -4 -10 3 -5 17
-10 31 -10 13 0 24 -4 24 -10 0 -5 -9 -10 -20 -10 -11 0 -20 -5 -20 -11 0 -6
7 -8 16 -5 8 3 12 2 9 -4 -3 -6 -2 -10 4 -10 5 0 12 6 14 13 3 6 6 1 6 -12 1
-19 -3 -22 -20 -18 -20 5 -20 5 -4 -13 16 -18 15 -19 -11 -22 -15 -2 -30 -10
-32 -18 -5 -13 -3 -13 11 -1 10 7 17 10 17 6 0 -4 16 2 35 14 19 11 37 16 40
11 3 -4 -1 -10 -7 -13 -8 -2 -1 -15 20 -34 17 -17 32 -36 32 -42 0 -6 6 -11
13 -12 6 0 3 -5 -8 -10 -15 -7 -9 -8 20 -4 36 5 38 4 18 -7 -64 -37 -129 -71
-171 -87 -26 -10 -72 -30 -102 -44 -148 -69 -262 -107 -360 -122 l-45 -6 40
23 c48 28 53 58 13 72 -23 8 -31 6 -42 -10 -14 -18 -15 -18 -21 9 -6 24 -12
28 -39 25 -27 -3 -31 -7 -34 -37 -4 -38 28 -81 60 -81 11 0 16 -5 13 -10 -4
-6 -10 -8 -14 -6 -4 3 -47 -1 -96 -9 -212 -31 -518 17 -676 105 -30 16 -62 33
-71 36 -10 4 -18 10 -18 15 0 5 -5 9 -10 9 -15 0 -88 55 -144 108 -54 51 -102
121 -133 197 -24 58 -41 161 -25 151 6 -4 12 5 14 21 2 16 12 32 25 39 13 6
31 18 41 27 10 10 22 17 25 17 9 0 45 30 70 58 16 17 23 19 30 10 7 -10 10
-10 14 0 8 21 55 35 64 20 4 -7 11 -9 15 -5 4 3 1 13 -6 22 -10 12 -10 15 1
15 8 0 23 -14 34 -30z m45 26 c0 -3 -4 -8 -10 -11 -5 -3 -10 -1 -10 4 0 6 5
11 10 11 6 0 10 -2 10 -4z m10 -36 c0 -5 -4 -10 -10 -10 -5 0 -10 5 -10 10 0
6 5 10 10 10 6 0 10 -4 10 -10z m120 -5 c0 -8 -7 -15 -15 -15 -8 0 -15 7 -15
15 0 8 7 15 15 15 8 0 15 -7 15 -15z m1280 -345 c0 -5 -5 -10 -11 -10 -5 0 -7
5 -4 10 3 6 8 10 11 10 2 0 4 -4 4 -10z m30 -36 c0 -8 -4 -12 -10 -9 -5 3 -10
13 -10 21 0 8 5 12 10 9 6 -3 10 -13 10 -21z"/>
<path d="M3050 4970 c0 -5 7 -10 16 -10 8 0 12 5 9 10 -3 6 -10 10 -16 10 -5
0 -9 -4 -9 -10z"/>
<path d="M2922 4735 c0 -16 2 -22 5 -12 2 9 2 23 0 30 -3 6 -5 -1 -5 -18z"/>
<path d="M4560 4109 c0 -5 5 -7 10 -4 6 3 10 8 10 11 0 2 -4 4 -10 4 -5 0 -10
-5 -10 -11z"/>
<path d="M3570 3850 c0 -5 5 -10 10 -10 6 0 10 5 10 10 0 6 -4 10 -10 10 -5 0
-10 -4 -10 -10z"/>
<path d="M3265 3539 c-10 -15 3 -25 16 -12 7 7 7 13 1 17 -6 3 -14 1 -17 -5z"/>
<path d="M4324 3509 c-3 -6 -17 -8 -29 -5 -13 3 -27 2 -30 -4 -6 -10 5 -13 40
-11 15 1 17 0 7 -7 -11 -7 -10 -11 4 -16 19 -7 34 8 34 37 0 19 -15 23 -26 6z"/>
<path d="M4111 2971 c-13 -18 -34 -36 -46 -41 -34 -13 -123 -22 -105 -10 25
16 4 21 -25 6 -21 -11 -23 -15 -10 -18 23 -4 -103 -68 -135 -68 -15 0 -31 -5
-38 -12 -9 -9 -17 -6 -35 13 -62 64 -82 74 -148 77 -47 2 -69 8 -85 23 -11 10
-23 19 -27 19 -11 0 5 -75 19 -86 8 -6 14 -15 14 -21 0 -12 52 -29 112 -38 26
-3 50 -10 53 -16 21 -32 138 -59 170 -39 24 15 105 39 169 50 111 18 131 35
141 117 10 71 3 83 -24 44z"/>
<path d="M3184 2905 c-21 -19 -51 -40 -66 -47 -15 -7 -24 -16 -22 -20 3 -4 -2
-8 -11 -8 -9 0 -28 -9 -42 -20 -14 -11 -30 -17 -36 -13 -6 4 -8 -4 -5 -21 3
-14 1 -29 -3 -32 -15 -9 -10 -44 6 -44 8 0 15 -7 15 -15 0 -8 5 -15 10 -15 6
0 10 7 10 15 0 9 6 18 14 21 7 3 24 25 36 50 13 24 52 73 87 108 68 69 73 98
7 41z"/>
<path d="M4235 2437 c-4 -10 -21 -25 -37 -33 -16 -8 -26 -19 -23 -24 6 -10
-49 -70 -65 -70 -5 0 -10 -6 -10 -14 0 -16 -68 -76 -87 -76 -7 0 -13 -4 -13
-8 0 -5 -12 -15 -27 -22 -16 -8 -35 -19 -43 -26 -8 -6 -44 -17 -80 -23 -54
-10 -75 -10 -121 3 -67 17 -121 43 -133 64 -7 12 -10 12 -17 1 -7 -11 -9 -11
-9 2 0 10 -11 20 -25 23 -29 7 -138 113 -130 125 2 5 -16 14 -40 21 -25 7 -45
17 -45 21 0 5 -4 9 -10 9 -5 0 5 -28 22 -62 37 -72 175 -218 207 -218 13 0 21
-9 26 -29 6 -27 11 -31 53 -36 26 -3 69 -11 96 -16 30 -6 61 -6 85 0 20 6 64
11 99 12 58 2 78 11 50 22 -7 3 -3 6 9 6 12 1 25 5 28 11 3 5 30 26 60 46 30
20 55 40 55 45 0 5 12 9 26 9 17 0 28 6 31 20 3 11 14 20 24 20 13 0 19 7 19
24 0 13 7 29 15 36 24 20 38 81 27 120 -8 28 -11 32 -17 17z"/>
<path d="M3340 2420 c0 -5 7 -10 16 -10 8 0 12 5 9 10 -3 6 -10 10 -16 10 -5
0 -9 -4 -9 -10z"/>
<path d="M953 5083 c-15 -5 -17 -23 -4 -23 5 0 11 7 15 15 3 8 4 15 3 14 -1 0
-8 -3 -14 -6z"/>
<path d="M910 2465 c0 -8 2 -15 4 -15 2 0 6 7 10 15 3 8 1 15 -4 15 -6 0 -10
-7 -10 -15z"/>
<path d="M2934 1127 c3 -10 6 -26 6 -35 0 -12 3 -13 11 -5 8 8 7 17 -6 35 -12
16 -16 18 -11 5z"/>
<path d="M2972 1090 c-15 -25 -15 -30 0 -30 6 0 8 3 5 7 -4 3 -2 12 5 20 6 7
9 15 7 18 -3 2 -10 -5 -17 -15z"/>
<path d="M3000 990 c0 -5 5 -10 10 -10 6 0 10 5 10 10 0 6 -4 10 -10 10 -5 0
-10 -4 -10 -10z"/>
<path d="M3031 964 c0 -11 3 -14 6 -6 3 7 2 16 -1 19 -3 4 -6 -2 -5 -13z"/>
<path d="M3130 829 c0 -5 5 -7 10 -4 6 3 10 8 10 11 0 2 -4 4 -10 4 -5 0 -10
-5 -10 -11z"/>
<path d="M3146 775 c-3 -8 -1 -15 4 -15 6 0 10 7 10 15 0 8 -2 15 -4 15 -2 0
-6 -7 -10 -15z"/>
<path d="M4225 730 c-3 -5 -1 -10 4 -10 6 0 11 5 11 10 0 6 -2 10 -4 10 -3 0
-8 -4 -11 -10z"/>
<path d="M3148 693 c7 -3 16 -2 19 1 4 3 -2 6 -13 5 -11 0 -14 -3 -6 -6z"/>
<path d="M3376 621 c-23 -25 -17 -65 10 -69 24 -3 46 35 37 67 -7 26 -25 27
-47 2z"/>
<path d="M4071 621 c-13 -23 2 -38 46 -47 34 -7 50 14 34 45 -13 24 -68 26
-80 2z"/>
<path d="M5092 7170 c0 -14 2 -19 5 -12 2 6 2 18 0 25 -3 6 -5 1 -5 -13z"/>
<path d="M4040 7145 c0 -31 -13 -32 -28 -2 -10 20 -11 19 -5 -8 6 -30 20 -55
32 -55 3 0 7 20 9 45 1 25 0 45 -3 45 -3 0 -5 -11 -5 -25z"/>
<path d="M3558 7153 c7 -3 16 -2 19 1 4 3 -2 6 -13 5 -11 0 -14 -3 -6 -6z"/>
<path d="M3635 7150 c28 -4 62 -10 75 -14 20 -5 19 -3 -5 9 -16 8 -50 14 -75
13 l-45 0 50 -8z"/>
<path d="M3900 7145 c-14 -8 -34 -14 -44 -15 -11 0 -17 -3 -13 -6 11 -11 75 6
81 21 6 18 7 18 -24 0z"/>
<path d="M3750 7120 c8 -5 26 -10 40 -10 20 0 22 2 10 10 -8 5 -26 10 -40 10
-20 0 -22 -2 -10 -10z"/>
<path d="M3471 7094 c0 -11 3 -14 6 -6 3 7 2 16 -1 19 -3 4 -6 -2 -5 -13z"/>
<path d="M3596 7044 c-9 -24 -7 -28 9 -14 17 14 20 30 6 30 -5 0 -12 -7 -15
-16z"/>
<path d="M3640 7050 c0 -5 9 -10 21 -10 11 0 17 5 14 10 -3 6 -13 10 -21 10
-8 0 -14 -4 -14 -10z"/>
<path d="M3787 7053 c-4 -3 -7 -11 -7 -17 0 -6 5 -5 12 2 6 6 9 14 7 17 -3 3
-9 2 -12 -2z"/>
<path d="M3702 7033 c2 -10 11 -19 21 -21 24 -5 21 15 -4 28 -18 10 -20 9 -17
-7z"/>
<path d="M3520 7000 c0 -31 18 -46 42 -37 8 3 4 8 -10 14 -21 8 -22 10 -8 22
22 18 20 31 -4 31 -16 0 -20 -7 -20 -30z"/>
<path d="M5800 6870 c-12 -8 -11 -10 7 -10 12 0 25 5 28 10 8 13 -15 13 -35 0z"/>
<path d="M5870 6852 c0 -13 41 -64 47 -58 3 3 -6 19 -21 36 -14 17 -26 27 -26
22z"/>
<path d="M5560 6785 c-7 -8 -9 -15 -4 -15 4 0 3 -5 -4 -12 -22 -22 -12 -29 18
-13 34 18 35 21 16 40 -12 12 -16 12 -26 0z"/>
<path d="M5961 6771 c-7 -5 -9 -11 -4 -14 5 -3 15 -2 22 2 7 5 9 11 4 14 -5 3
-15 2 -22 -2z"/>
<path d="M3025 6761 c-18 -7 -17 -8 6 -13 14 -2 34 -1 45 3 10 4 14 8 7 8 -6
1 -17 3 -25 5 -7 3 -22 1 -33 -3z"/>
<path d="M5680 6740 c0 -5 5 -10 11 -10 5 0 7 5 4 10 -3 6 -8 10 -11 10 -2 0
-4 -4 -4 -10z"/>
<path d="M5520 6709 c0 -5 5 -7 10 -4 6 3 10 8 10 11 0 2 -4 4 -10 4 -5 0 -10
-5 -10 -11z"/>
<path d="M5605 6700 c3 -5 8 -10 11 -10 2 0 4 5 4 10 0 6 -5 10 -11 10 -5 0
-7 -4 -4 -10z"/>
<path d="M5633 6673 c-15 -5 -17 -23 -4 -23 5 0 11 7 15 15 3 8 4 15 3 14 -1
0 -8 -3 -14 -6z"/>
<path d="M5650 6589 c0 -5 5 -7 10 -4 6 3 10 8 10 11 0 2 -4 4 -10 4 -5 0 -10
-5 -10 -11z"/>
<path d="M5851 6561 c-37 -10 -35 -25 3 -37 32 -10 33 -9 22 8 -9 15 -8 21 4
28 17 11 7 11 -29 1z"/>
<path d="M5883 6424 c0 -17 46 -69 54 -60 7 6 -12 38 -34 59 -18 15 -20 15
-20 1z"/>
<path d="M5920 6426 c0 -18 6 -21 45 -30 28 -6 29 -5 10 9 -11 8 -25 19 -32
25 -17 14 -23 13 -23 -4z"/>
<path d="M2452 6419 c2 -7 10 -15 17 -17 8 -3 12 1 9 9 -2 7 -10 15 -17 17 -8
3 -12 -1 -9 -9z"/>
<path d="M6043 6413 c-13 -2 -23 -9 -23 -15 0 -6 10 -8 23 -4 12 3 28 6 35 6
7 0 10 5 7 10 -3 6 -9 9 -13 9 -4 -1 -17 -4 -29 -6z"/>
<path d="M5870 6370 c0 -5 5 -10 11 -10 5 0 7 5 4 10 -3 6 -8 10 -11 10 -2 0
-4 -4 -4 -10z"/>
<path d="M6046 6314 c-4 -9 -1 -23 6 -32 10 -12 10 -16 1 -19 -7 -3 -13 -9
-13 -14 0 -4 7 -6 15 -3 8 4 30 -1 48 -9 35 -17 190 -21 180 -4 -3 4 -20 7
-38 5 -19 -1 -37 1 -40 4 -4 4 -13 4 -21 1 -8 -3 -14 0 -14 7 0 9 -3 10 -14 1
-9 -8 -21 -8 -40 -1 -24 9 -36 30 -17 30 5 0 11 11 13 25 6 31 -5 32 -25 3
-12 -19 -18 -21 -28 -10 -11 10 -10 12 5 12 9 0 14 5 11 10 -9 15 -22 12 -29
-6z"/>
<path d="M6136 6277 c3 -10 9 -15 12 -12 3 3 0 11 -7 18 -10 9 -11 8 -5 -6z"/>
<path d="M6336 6167 c3 -10 9 -15 12 -12 3 3 0 11 -7 18 -10 9 -11 8 -5 -6z"/>
<path d="M2187 6113 c-4 -3 -7 -11 -7 -17 0 -6 5 -5 12 2 6 6 9 14 7 17 -3 3
-9 2 -12 -2z"/>
<path d="M6238 6073 c7 -3 16 -2 19 1 4 3 -2 6 -13 5 -11 0 -14 -3 -6 -6z"/>
<path d="M1855 6021 c-8 -14 10 -22 30 -15 13 5 14 8 3 15 -17 11 -26 11 -33
0z"/>
<path d="M6226 6012 c-3 -6 -1 -14 5 -17 15 -10 25 3 12 16 -7 7 -13 7 -17 1z"/>
<path d="M6382 5829 c2 -7 10 -15 17 -17 8 -3 12 1 9 9 -2 7 -10 15 -17 17 -8
3 -12 -1 -9 -9z"/>
<path d="M1410 5781 c-19 -5 -21 -8 -10 -13 9 -3 24 0 35 8 20 15 15 16 -25 5z"/>
<path d="M6440 5760 c0 -5 5 -10 11 -10 5 0 7 5 4 10 -3 6 -8 10 -11 10 -2 0
-4 -4 -4 -10z"/>
<path d="M1296 5743 c-9 -9 -7 -43 2 -43 5 0 16 6 25 13 16 11 16 13 -2 24
-10 6 -22 9 -25 6z"/>
<path d="M6705 5310 c3 -5 8 -10 11 -10 2 0 4 5 4 10 0 6 -5 10 -11 10 -5 0
-7 -4 -4 -10z"/>
<path d="M6690 5180 c0 -5 10 -19 22 -30 19 -17 33 -20 82 -18 33 2 61 8 63
14 3 8 -9 9 -39 4 -42 -8 -88 5 -103 30 -8 13 -25 13 -25 0z"/>
<path d="M6740 5100 c0 -11 4 -20 9 -20 11 0 22 26 14 34 -12 12 -23 5 -23
-14z"/>
<path d="M6850 4961 c0 -5 7 -12 16 -15 14 -5 15 -4 4 9 -14 17 -20 19 -20 6z"/>
<path d="M7040 4938 c0 -2 6 -23 14 -47 8 -28 16 -40 20 -32 7 11 -19 81 -29
81 -3 0 -5 -1 -5 -2z"/>
<path d="M471 4824 c0 -11 3 -14 6 -6 3 7 2 16 -1 19 -3 4 -6 -2 -5 -13z"/>
<path d="M7045 4792 c-10 -28 -26 -54 -35 -57 -14 -4 -44 -95 -31 -95 11 0 94
177 89 191 -2 7 -13 -10 -23 -39z"/>
<path d="M460 4654 c0 -6 7 -19 16 -30 14 -18 14 -18 3 6 -14 31 -19 36 -19
24z"/>
<path d="M512 4530 c0 -14 2 -19 5 -12 2 6 2 18 0 25 -3 6 -5 1 -5 -13z"/>
<path d="M446 4401 c-28 -15 -52 -33 -54 -39 -4 -13 83 31 108 54 22 22 0 15
-54 -15z"/>
<path d="M790 4356 c0 -9 5 -16 10 -16 6 0 10 4 10 9 0 6 -4 13 -10 16 -5 3
-10 -1 -10 -9z"/>
<path d="M490 4290 c0 -5 5 -10 10 -10 6 0 10 5 10 10 0 6 -4 10 -10 10 -5 0
-10 -4 -10 -10z"/>
<path d="M327 4243 c-12 -21 -17 -72 -8 -78 7 -4 11 5 11 24 0 16 5 33 10 36
6 3 10 10 10 16 0 11 -17 12 -23 2z"/>
<path d="M393 4184 c-3 -8 -1 -26 6 -40 14 -32 14 -34 -3 -28 -8 3 -17 15 -20
27 -7 28 -21 13 -21 -24 0 -21 5 -29 18 -29 33 0 17 -21 -35 -45 -29 -14 -58
-25 -65 -25 -7 0 -17 -8 -22 -19 -9 -17 -6 -16 37 5 26 13 66 29 89 34 47 12
72 42 54 64 -6 7 -8 16 -5 19 10 9 -5 77 -17 77 -5 0 -12 -7 -16 -16z"/>
<path d="M802 4163 c-17 -30 -15 -37 4 -19 8 9 14 22 11 29 -2 7 -8 4 -15 -10z"/>
<path d="M210 3975 c0 -5 5 -17 10 -25 5 -8 10 -10 10 -5 0 6 -5 17 -10 25 -5
8 -10 11 -10 5z"/>
<path d="M7130 3972 c0 -12 19 -26 26 -19 2 2 -2 10 -11 17 -9 8 -15 8 -15 2z"/>
<path d="M7165 3930 c3 -5 8 -10 11 -10 2 0 4 5 4 10 0 6 -5 10 -11 10 -5 0
-7 -4 -4 -10z"/>
<path d="M410 3919 c0 -5 5 -7 10 -4 6 3 10 8 10 11 0 2 -4 4 -10 4 -5 0 -10
-5 -10 -11z"/>
<path d="M338 3881 c-14 -23 -34 -28 -41 -8 -2 6 -7 10 -10 7 -3 -3 6 -18 19
-33 19 -22 24 -24 24 -11 0 10 7 26 17 36 9 10 14 21 10 24 -3 3 -12 -3 -19
-15z"/>
<path d="M7210 3881 c0 -11 4 -22 9 -25 4 -3 6 6 3 19 -5 30 -12 33 -12 6z"/>
<path d="M375 3800 c-3 -5 -1 -10 4 -10 6 0 11 5 11 10 0 6 -2 10 -4 10 -3 0
-8 -4 -11 -10z"/>
<path d="M6931 3494 c0 -11 3 -14 6 -6 3 7 2 16 -1 19 -3 4 -6 -2 -5 -13z"/>
<path d="M6920 3340 c0 -5 5 -10 10 -10 6 0 10 5 10 10 0 6 -4 10 -10 10 -5 0
-10 -4 -10 -10z"/>
<path d="M525 3310 c4 -6 11 -8 16 -5 14 9 11 15 -7 15 -8 0 -12 -5 -9 -10z"/>
<path d="M6920 3309 c0 -5 5 -7 10 -4 6 3 10 8 10 11 0 2 -4 4 -10 4 -5 0 -10
-5 -10 -11z"/>
<path d="M351 3264 c-12 -15 -21 -34 -20 -43 0 -11 3 -10 9 5 4 12 21 31 36
43 18 14 22 21 11 21 -9 0 -25 -12 -36 -26z"/>
<path d="M467 3174 c-5 -5 30 -74 39 -74 2 0 -1 12 -6 26 -16 40 -13 44 33 39
31 -4 37 -2 22 4 -23 11 -79 14 -88 5z"/>
<path d="M361 3120 c0 -8 6 -26 15 -40 l15 -25 -7 25 c-3 14 -10 32 -15 40 -7
13 -8 13 -8 0z"/>
<path d="M510 3080 c0 -5 5 -10 11 -10 5 0 7 5 4 10 -3 6 -8 10 -11 10 -2 0
-4 -4 -4 -10z"/>
<path d="M511 3010 c-23 -45 -25 -50 -13 -50 12 0 61 77 54 84 -12 12 -21 5
-41 -34z"/>
<path d="M686 3015 c-3 -10 1 -15 14 -15 25 0 34 16 14 24 -21 8 -21 8 -28 -9z"/>
<path d="M340 2976 c0 -2 9 -6 20 -9 11 -3 18 -1 14 4 -5 9 -34 13 -34 5z"/>
<path d="M780 2969 c0 -5 5 -7 10 -4 6 3 10 8 10 11 0 2 -4 4 -10 4 -5 0 -10
-5 -10 -11z"/>
<path d="M301 2924 c0 -11 3 -14 6 -6 3 7 2 16 -1 19 -3 4 -6 -2 -5 -13z"/>
<path d="M708 2863 c7 -3 16 -2 19 1 4 3 -2 6 -13 5 -11 0 -14 -3 -6 -6z"/>
<path d="M6920 2549 c0 -5 5 -7 10 -4 6 3 10 8 10 11 0 2 -4 4 -10 4 -5 0 -10
-5 -10 -11z"/>
<path d="M690 2379 c0 -5 5 -7 10 -4 6 3 10 8 10 11 0 2 -4 4 -10 4 -5 0 -10
-5 -10 -11z"/>
<path d="M6862 2355 c15 -16 30 -26 33 -23 4 3 -9 16 -27 28 l-33 23 27 -28z"/>
<path d="M880 2355 c0 -8 5 -15 10 -15 6 0 10 7 10 15 0 8 -4 15 -10 15 -5 0
-10 -7 -10 -15z"/>
<path d="M5492 2305 c0 -16 2 -22 5 -12 2 9 2 23 0 30 -3 6 -5 -1 -5 -18z"/>
<path d="M841 2234 c0 -11 3 -14 6 -6 3 7 2 16 -1 19 -3 4 -6 -2 -5 -13z"/>
<path d="M5483 2155 c0 -22 2 -30 4 -17 2 12 2 30 0 40 -3 9 -5 -1 -4 -23z"/>
<path d="M6850 2169 c0 -8 7 -24 15 -35 18 -24 19 -7 0 26 -9 16 -14 19 -15 9z"/>
<path d="M5424 2093 c-19 -4 -40 -40 -29 -51 2 -2 20 2 40 9 31 11 37 11 45
-1 7 -11 10 -6 10 18 0 34 -8 37 -66 25z"/>
<path d="M708 2063 c12 -2 30 -2 40 0 9 3 -1 5 -23 4 -22 0 -30 -2 -17 -4z"/>
<path d="M680 1792 c0 -1 12 -7 26 -12 16 -7 23 -14 18 -22 -5 -9 -2 -9 9 1
28 22 20 38 -18 37 -19 -1 -35 -2 -35 -4z"/>
<path d="M6700 1700 c0 -5 5 -10 10 -10 6 0 10 5 10 10 0 6 -4 10 -10 10 -5 0
-10 -4 -10 -10z"/>
<path d="M5246 1670 c-5 -14 -14 -28 -20 -32 -7 -5 -4 -8 7 -8 20 0 31 20 25
47 -3 15 -6 13 -12 -7z"/>
<path d="M1011 1594 c0 -11 3 -14 6 -6 3 7 2 16 -1 19 -3 4 -6 -2 -5 -13z"/>
<path d="M5196 1564 c-4 -9 -4 -19 -1 -22 2 -3 7 3 11 12 4 9 4 19 1 22 -2 3
-7 -3 -11 -12z"/>
<path d="M995 1505 c17 -13 24 -24 18 -25 -18 0 -16 -17 3 -24 9 -4 23 -1 32
6 8 7 17 12 19 11 10 -8 24 -1 21 10 -3 6 -20 14 -39 17 -19 3 -33 11 -31 18
1 7 -9 12 -25 12 l-28 0 30 -25z"/>
<path d="M885 1420 c-3 -5 -2 -10 4 -10 5 0 13 5 16 10 3 6 2 10 -4 10 -5 0
-13 -4 -16 -10z"/>
<path d="M2060 990 c-9 -6 -10 -10 -3 -10 6 0 15 5 18 10 8 12 4 12 -15 0z"/>
</g>
</svg>
